<?xml version="1.0" encoding="UTF-8"?>
<svg id="Capa_1" data-name="Capa 1" xmlns="http://www.w3.org/2000/svg" viewBox="0 0 2187.72 398.57">
  <defs>
    <style>
      .cls-1 {
        fill: #fff;
      }

      .cls-2 {
        fill: none;
        stroke: #fff;
        stroke-linecap: round;
        stroke-linejoin: round;
        stroke-width: 56.39px;
      }
    </style>
  </defs>
  <path class="cls-1" d="M483.56,56.07h101.21c56.06,0,85.17,22.99,85.17,66.15v2.15c1.65,26.14-16.07,49.56-41.67,55.07,30.88,2.72,53.82,29.79,51.43,60.69v1.49c0,47.13-30.92,71.94-90.29,71.94h-105.84V56.07Zm91.78,105.67c28.11,0,39.19-10.09,39.19-33.07v-1.49c0-21.5-12.24-31.26-39.52-31.26h-34.56v66.15l34.89-.33Zm4.96,111.3c28.77,0,41.84-13.06,41.84-36.38v-1.49c0-23.81-13.06-35.89-44.65-35.89h-37.04v73.92l39.85-.17Zm114.6-11.91c0-43.99,40.19-60.53,97.9-60.53h21.17v-7.44c0-22.33-6.78-34.56-30.59-34.56-15.6-1.85-29.75,9.29-31.6,24.89-.07,.58-.12,1.15-.15,1.73h-49.61c3.31-44.65,38.53-64.49,84.67-64.49s78.72,18.69,78.72,69.79v122.71h-50.77v-22.66c-12.96,18.26-34.56,28.37-56.89,26.62-34.07,0-62.84-16.54-62.84-56.06Zm119.07-13.73v-16.54h-20.18c-30.26,0-47.79,6.61-47.79,26.62,0,13.73,8.27,22.66,27.29,22.66,22.99,.66,40.68-11.91,40.68-32.74h0Zm73.42,6.78h48.62c2.15,16.54,10.42,26.62,33.07,26.62,20.18,0,29.6-7.44,29.6-20.51s-11.25-18.36-38.2-22.16c-49.61-7.61-69.46-21.99-69.46-58.71s36.05-58.71,74.42-58.71c41.84,0,73.09,15.21,77.72,58.38h-47.79c-2.81-15.54-11.58-22.66-29.44-22.66s-26.62,7.94-26.62,19.35,8.93,16.54,36.22,20.51c47.13,6.78,73.09,18.69,73.09,59.04s-29.44,61.85-79.21,61.85-80.21-22.33-82.02-63.01h0Zm174.63-32.74v-2.81c-2.5-51.54,37.26-95.35,88.8-97.85,2.65-.13,5.3-.14,7.94-.05,48.62,0,91.78,28.44,91.78,95.75v14.39h-135.11c1.32,31.26,18.36,49.61,46.63,49.61,24.14,0,36.05-10.42,39.36-26.29h49.61c-6.12,40.68-38.53,63.34-89.96,63.34-57.71-.33-99.06-35.89-99.06-96.08Zm137.75-22.66c-1.65-28.44-16.21-41.34-41.01-41.34-23.21-.11-42.35,18.15-43.33,41.34h84.34Zm64.49,22.66v-2.81c-2.51-51.54,37.24-95.36,88.78-97.86,2.76-.13,5.53-.15,8.29-.04,43.66,0,83.84,19.02,88.64,73.09h-49.61c-1.36-19.13-17.97-33.54-37.1-32.18-.37,.03-.73,.06-1.1,.1-26.96,0-44.98,20.18-44.98,56.23v2.81c0,37.87,16.54,57.22,46.14,57.22,20.97,1.21,38.95-14.82,40.16-35.79,.01-.2,.02-.39,.03-.59h47.13c-2.81,44.65-35.22,75.57-89.96,75.57s-96.41-34.23-96.41-95.75h0Zm198.45,39.69c0-43.99,40.19-60.53,97.73-60.53h21.33v-7.44c0-22.33-6.95-34.56-30.59-34.56-15.58-2.03-29.85,8.95-31.89,24.52-.09,.7-.16,1.4-.2,2.1h-49.61c3.31-44.65,38.53-64.49,84.5-64.49s78.88,18.69,78.88,69.79v122.71h-50.77v-22.66c-12.96,18.26-34.56,28.37-56.89,26.62-33.07,0-62.51-16.54-62.51-56.06Zm119.07-13.73v-16.54h-19.84c-30.26,0-47.96,6.61-47.96,26.62,0,13.73,8.43,22.66,27.45,22.66,23.32,.66,41.01-11.91,41.01-32.74h-.66Zm87.81-123.04h52.09v28.77c11.57-20.83,33.72-33.56,57.55-33.07,22.92-1.83,44.31,11.62,52.59,33.07,14.11-21.08,37.97-33.54,63.34-33.07,34.89,0,61.85,21.99,61.85,71.94v120.56h-51.76v-114.11c0-24.14-10.75-34.89-29.6-34.89-19.25-.84-35.54,14.09-36.38,33.34-.08,1.73-.02,3.46,.16,5.19v111.13h-51.93v-114.77c0-24.14-11.08-34.89-29.44-34.89-19.25-.93-35.61,13.92-36.54,33.17-.09,1.79-.03,3.58,.15,5.36v111.13h-52.09V124.37Zm323.14,0h52.26v29.6c12.67-21.06,35.45-33.93,60.03-33.9,46.14,0,82.69,34.23,82.69,96.41v2.98c0,62.18-35.22,97.07-82.69,97.07-24.61,1.01-47.74-11.73-60.03-33.07v93.93h-52.26V124.37Zm141.39,95.42v-2.98c0-38.04-18.69-56.72-44.98-56.72s-45.97,19.02-45.97,56.72v2.98c0,37.7,18.03,56.06,46.47,56.06s44.49-19.18,44.49-55.4v-.66Z"/>
  <path class="cls-2" d="M28.2,219.61C59.42,131.08,119.24,28.2,239.95,28.2s180.41,158.75,187.94,266.42c-31.7,55.03-107.67,75.73-187.94,75.73-65.75,1.07-128.7-26.58-172.39-75.73,0,0,37.8-102.05,73.1-102.29,25.96,0,47.85,47.85,68.55,47.85s63.76-91.88,63.76-91.88"/>
</svg>