<?xml version="1.0" encoding="UTF-8"?>
<svg id="Capa_1" data-name="Capa 1" xmlns="http://www.w3.org/2000/svg" viewBox="0 0 821.41 179.16">
  <defs>
    <style>
      .cls-1 {
        fill: #fcfcfc;
      }

      .cls-2 {
        fill: #fff;
      }
    </style>
  </defs>
  <path class="cls-2" d="M107.64,89.15c0-22.3,.05-44.61-.03-66.91-.02-7.47,2.72-13.61,8.6-18.06,6.19-4.7,13.17-5.43,20.31-2.25,6.28,2.78,9.82,7.91,11.48,14.45,.54,2.13,.65,4.31,.65,6.5V155.53c0,3.69-.44,7.29-1.78,10.76-3.24,8.36-10.59,13.08-19.46,12.86-9.82-.24-17.15-7.49-19.14-16.82-.49-2.3-.63-4.62-.63-6.96,0-22.07,0-44.14,0-66.21h0Z"/>
  <path class="cls-1" d="M53.83,123.21c0-11.08,.13-22.16-.05-33.24-.14-8.67,5.61-17.78,14.61-20.68,7.39-2.39,15.89-.15,20.95,5.78,3.72,4.35,5.46,9.35,5.46,15.02v66.7c0,4.54-.96,8.86-3.27,12.74-2.92,4.9-7.18,8.2-12.9,9.2-5.91,1.04-11.55,.26-16.4-3.55-4.2-3.3-6.68-7.74-7.8-12.94-.5-2.29-.63-4.62-.62-6.96,.02-10.69,0-21.37,0-32.06h0Z"/>
  <path class="cls-2" d="M235.89,117.52c-.81-.41-1.68-.22-2.52-.22-6.4-.02-12.79,0-19.19,0-2.01,0-2.02-.02-2.04-2.08-.02-2.5-.02-4.99,0-7.49,.02-1.94,.03-1.96,1.93-1.97,4.29-.02,8.58,0,12.87,0h16.62c2.45,0,2.56,0,2.76,2.36,1.11,12.92-2.46,23.96-12.75,32.47-4.98,4.12-10.74,5.81-16.94,6.56-7.66,.92-15.01-.42-21.65-4.2-10.59-6.03-17.24-15.13-19.35-27.24-1.74-10,.41-19.29,6.1-27.61,9.33-13.64,25.28-19.56,40.77-14.91,5.3,1.59,9.51,4.91,13.7,8.31,.71,.57,.43,1.08-.03,1.57-1.18,1.24-2.38,2.47-3.58,3.7-.81,.83-1.53,2.13-2.48,2.34-1.02,.22-1.81-1.24-2.77-1.87-5.81-3.8-12.02-6.04-19.02-4.64-7.7,1.54-13.73,5.66-17.85,12.44-4.41,7.26-5.43,15.02-3.21,23.16,1.99,7.29,6.17,12.92,12.89,16.72,6.4,3.62,13.11,4.15,19.87,2.03,8.48-2.65,14.08-8.36,15.86-17.34,.13-.68,.3-1.38,.04-2.09h0Z"/>
  <path class="cls-2" d="M387.52,141.64c-.37-.13-.61,.11-.79,.33-3.99,5.19-13.06,6.64-19.79,3.5-8.15-3.79-12.58-10.42-13.84-19.19-.99-6.86,.61-13.21,4.73-18.77,5.86-7.92,15.61-11.38,24.59-7.42,1.84,.81,3.21,2.17,4.7,3.41,.3,.26,.62,.58,1.01,.47,.59-.16,.45-.74,.46-1.18,.02-1.01,.05-2.03,0-3.04-.05-1.03,.44-1.35,1.41-1.34,2.34,.04,4.68,.03,7.02,0,.92,0,1.27,.42,1.26,1.27,0,.47,0,.93,0,1.4,0,13.56,.04,27.13-.02,40.69-.02,3.58-.26,7.14-1.14,10.66-1.55,6.15-4.97,10.84-10.52,13.91-1.92,1.06-4.06,1.61-6.23,1.92-4.21,.61-8.42,.66-12.44-.98-5.73-2.34-9.82-6.44-12.58-11.95-.44-.87-.22-1.26,.62-1.57,2.33-.88,4.66-1.77,6.97-2.7,.67-.27,.98-.03,1.31,.51,.56,.93,1.15,1.85,1.77,2.74,3.89,5.61,12.75,6.59,17.81,2.01,1.01-.92,1.69-2.02,2.31-3.19,1.6-3.08,2.18-7.88,1.38-11.53l-.02,.03Zm-25.6-19.31c-.1,2.9,.63,5.68,1.96,8.28,1.51,2.95,3.82,5.17,6.96,6.25,6.06,2.1,11.6-1.31,14.12-6.89,2.71-5.98,2.29-11.91-1.37-17.58-3.33-5.16-12.4-7.75-18.23-.56-2.42,2.98-3.49,6.58-3.45,10.5h0Z"/>
  <path class="cls-2" d="M20.86,179.12c-10.37,.22-18.39-7.18-20.29-16.42-1.68-8.14,.36-15.34,6.61-20.98,6.19-5.57,13.44-6.91,21.06-3.72,6.72,2.81,10.84,8.15,12.44,15.34,1.97,8.9-2.11,18.46-9.91,23.15-3.15,1.89-6.61,2.69-9.91,2.63Z"/>
  <path class="cls-2" d="M538.81,145.89c-2.5,0-5.12,0-7.74,0-.85,0-.98-.66-1.17-1.23-1.02-2.86-2.02-5.73-3.01-8.6-.76-2.21-1.54-4.41-2.23-6.65-.3-.96-.76-1.39-1.81-1.38-8.03,.03-16.07,.04-24.1,0-1.23,0-1.56,.62-1.89,1.6-1.64,4.87-3.37,9.71-4.99,14.58-.4,1.21-.92,1.78-2.3,1.71-2.31-.12-4.63-.03-7.2-.03,.68-1.96,1.23-3.65,1.83-5.31,5.48-14.99,10.98-29.97,16.46-44.96,1.63-4.46,3.22-8.94,4.82-13.41,.5-1.41,1.48-2.12,2.95-2.13,1.72,0,3.44,.08,5.14-.03,1.34-.09,1.91,.47,2.34,1.69,2.17,6.09,4.43,12.14,6.65,18.21,2.64,7.24,5.27,14.48,7.9,21.72,2.77,7.61,5.54,15.21,8.32,22.82,.13,.37,.32,.72,.04,1.37v.02Zm-19.29-32.89c.1-.85-.23-1.51-.47-2.15-3.2-8.78-6.44-17.54-9.67-26.31-.05-.14-.16-.27-.26-.38-.04-.05-.14-.05-.21-.06-.07,0-.15,0-.38,.02-3.26,9.54-6.54,19.13-9.88,28.87h20.86Z"/>
  <path class="cls-2" d="M273.77,98.07c5.87-.25,11.11,2.13,15.58,6.19,3.8,3.47,5.98,7.96,6.89,13,1.1,6.17,.33,12.09-2.84,17.62-3.49,6.11-8.64,9.93-15.52,11.32-5.11,1.03-10.11,.46-14.83-1.8-6.96-3.34-11.04-9-12.53-16.46-1.62-8.15-.2-15.79,5.32-22.14,4.55-5.25,10.51-7.93,17.92-7.71h0Zm-13.43,24.23c0,.54-.05,1.1,0,1.63,.53,5.42,3.09,9.61,7.83,12.27,5.45,3.05,13.1,.44,16.17-5.51,2.57-4.97,2.79-10.2,.6-15.35-3.69-8.67-13.78-10.31-19.88-4.57-3.26,3.07-4.76,7.03-4.73,11.53h0Z"/>
  <path class="cls-2" d="M464.32,116.57c-3.47,2.01-7.12,3.36-10.68,4.88-6.16,2.63-12.34,5.24-18.5,7.86-.29,.12-.59,.21-.86,.37-1.17,.66-1.27,1.01-.38,2.15,3.82,4.94,8.29,6.76,14.37,5.21,2.76-.71,4.68-2.7,6.54-4.72,.32-.34,.58-.73,.84-1.13,.39-.59,.82-.58,1.38-.21,2.2,1.48,4.41,2.95,6.61,4.43,.62,.42,.74,.89,.21,1.54-5.28,6.51-11.92,10.17-20.47,9.77-3.62-.17-7.11-1.03-10.26-2.9-6.82-4.06-10.74-10.16-11.7-17.93-.84-6.84,.33-13.38,4.61-19.07,3.75-4.98,8.65-8,14.92-8.57,2.01-.18,4.04-.18,6.05,.24,5.33,1.12,9.2,4.28,12.41,8.53,2.19,2.91,3.35,6.29,4.92,9.55h0Zm-34.79,5.39c.3-.05,.62-.04,.89-.16,6.28-2.7,12.55-5.45,18.85-8.12,1.14-.48,1.13-1.1,.6-1.97-1.63-2.68-4.15-3.93-7.16-4.21-8.78-.82-14.05,7.48-13.18,14.46h0Z"/>
  <path class="cls-2" d="M618.44,118.68c.72-4.68-1.53-8.84-5.8-10.6-3.49-1.45-7-1.34-10.46,.14-1.84,.79-3.38,2-4.14,3.92-.49,1.24-1.13,1.22-2.15,.67-1.64-.89-3.33-1.69-5.01-2.5-.82-.39-.99-.94-.55-1.69,.85-1.48,1.62-3.03,2.93-4.19,6-5.29,13.09-6.77,20.51-4.53,8.16,2.46,12.68,7.49,13.14,17.27,.41,8.95,.09,17.92,.13,26.89,0,1.1-.33,1.55-1.47,1.51-1.55-.06-3.12-.09-4.68,0-1.31,.08-1.6-.53-1.55-1.66,.05-1.45,.02-2.9,.02-4.26-.92-.25-1.11,.28-1.34,.63-2.67,3.97-6.61,5.8-11.14,6.56-4.75,.8-9.14-.37-13.1-2.95-5.39-3.51-7.5-11.46-4.86-17.51,1.43-3.28,3.75-5.62,6.87-7.36,6.11-3.41,12.51-3.26,19.07-1.94,1.31,.26,2.26,1.34,3.59,1.6v.02Zm-12.94,20.38c6.41,.23,12.15-5.31,13.1-11.06,.22-1.3-.19-2.08-1.38-2.58-3.27-1.38-6.66-2.32-10.22-1.91-3.21,.37-6.26,1.29-8.48,3.93-3.24,3.86-1.94,9.09,2.76,10.9,1.4,.54,2.86,.76,4.21,.72h0Z"/>
  <path class="cls-2" d="M550.15,107.16c2.45-3.55,5.46-5.55,8.8-6.86,3.73-1.46,7.64-1.32,11.4,.26,6.23,2.61,8.85,7.75,9.73,14.06,.23,1.69,.3,3.41,.3,5.13-.02,8.03,0,16.07-.02,24.1,0,.54,0,1.09-.02,1.64,0,.72-.26,1.19-1.09,1.19-2.03,0-4.06,0-6.09,0-.81,0-1.1-.42-1.08-1.17,.02-.54,0-1.09,0-1.64,0-7.72,.02-15.44,0-23.16,0-2.82-.36-5.57-1.66-8.17-.77-1.54-1.8-2.77-3.24-3.57-5.55-3.06-11.78-1.45-15.05,3.51-1.87,2.82-2.72,5.89-2.7,9.26,.05,7.33,.02,14.66,0,21.99,0,2.14-.02,2.15-2.19,2.15-1.64,0-3.27-.02-4.91,0-.76,0-1.17-.27-1.14-1.09,.02-.47,0-.93,0-1.41,0-13.57,0-27.13-.02-40.71,0-.39,.03-.79,0-1.17-.09-1.06,.26-1.59,1.45-1.53,1.79,.07,3.59,.07,5.38,0,1.14-.05,1.51,.52,1.59,1.52,.15,1.7,.33,3.4,.54,5.64h0Z"/>
  <path class="cls-2" d="M647.09,100.95c2.51,0,4.83,.02,7.14,0,1.03-.02,1.3,.7,1.6,1.42,1.31,3.16,2.63,6.33,3.94,9.49,2.61,6.33,5.22,12.66,7.83,18.99,.15,.36,.26,.74,.72,.86,.46-.33,.58-.87,.78-1.35,3.77-9.13,7.56-18.26,11.27-27.42,.61-1.52,1.44-2.16,3.12-2.02,1.85,.16,3.72,.04,5.75,.04-.33,2.38-1.48,4.26-2.28,6.24-4.41,10.89-8.95,21.73-13.43,32.6-3.35,8.13-6.68,16.27-10.01,24.41-.51,1.24-1.46,1.86-2.86,1.87h-5.81c-.09-1,.27-1.69,.57-2.41,2.69-6.55,5.35-13.12,8.09-19.65,.51-1.2,.4-2.23-.07-3.35-2.86-6.82-5.71-13.64-8.54-20.47-2.45-5.89-4.89-11.79-7.32-17.69-.17-.42-.27-.86-.47-1.54h-.02Z"/>
  <path class="cls-2" d="M775.48,129.67c1.85,1.11,3.61,2.22,5.42,3.26,.96,.55,1.3,1.06,.74,2.22-6.05,12.44-20.6,14.81-30.2,7.19-4.95-3.93-7.76-9.3-8.7-15.55-.92-6.09-.17-11.99,2.8-17.46,3.13-5.76,7.79-9.72,14.35-10.94,7.97-1.48,15.19,1.2,20.02,8.47,2.99,4.5,3.42,3.18-1.34,6.8-.95,.72-1.89,2.09-3.1,1.73-1.03-.3-1.25-1.86-1.85-2.85-4.57-7.58-15.37-7.61-20.05-.09-3.54,5.7-3.93,11.67-1.22,17.64,3.11,6.85,9.68,9.96,16.31,6.79,2.5-1.2,4.35-3.24,5.83-5.59,.33-.52,.65-1.05,.98-1.61h0Z"/>
  <path class="cls-2" d="M816.81,112.25c-3.89-4.55-8.57-5.88-13.92-5.32-1.02,.11-1.99,.39-2.88,.89-3.35,1.88-3.64,6.36-.47,8.51,2,1.35,4.24,2.26,6.61,2.85,2.42,.61,4.8,1.32,7.14,2.18,8.33,3.05,9.59,11.59,6.76,17.97-1.59,3.59-4.44,5.7-8.06,6.95-7.59,2.63-14.05,.43-19.84-4.62-1.17-1.03-2.25-2.15-3.4-3.2-.68-.62-.96-1.13-.04-1.84,1.48-1.13,2.89-2.36,4.32-3.55,.59-.5,1.07-.5,1.58,.13,.63,.79,1.31,1.55,1.95,2.33,3.11,3.76,7.44,4.59,11.85,3.45,2.25-.58,3.82-2.02,4.41-4.38,.79-3.14-.12-5.11-3.12-6.37-1.8-.76-3.69-1.22-5.59-1.67-3.25-.78-6.45-1.62-9.47-3.21-5.51-2.91-7.07-7.86-5.85-13.66,1.24-5.88,5.23-9.23,10.91-10.56,4.55-1.06,8.95-.5,13.11,1.8,1.98,1.1,4,2.11,5.78,3.51,.79,.62,1.58,1.26,2.16,2.11,.41,.6,.46,1.06-.1,1.62-1.27,1.27-2.46,2.6-3.84,4.06h0Z"/>
  <path class="cls-2" d="M403.91,109.57v-34.17c0-.54,.02-1.1,0-1.64-.05-.93,.24-1.45,1.31-1.44,2.5,.04,5,.04,7.49,0,1.03-.02,1.39,.44,1.34,1.41-.03,.47,0,.93,0,1.41v68.8c0,.39-.03,.79,0,1.17,.13,1.26-.49,1.62-1.66,1.58-2.26-.06-4.52,0-6.79-.02-1.62-.02-1.66-.06-1.68-1.76-.02-4.45,0-8.89,0-13.34v-22h0Z"/>
  <path class="cls-2" d="M708.81,93.24v4.45c0,2.57-.11,2.33,2.46,2.34,1.8,0,3.59,.05,5.38-.02,1.14-.04,1.73,.25,1.68,1.54-.08,1.94-.06,3.89,0,5.84,.04,1.13-.41,1.5-1.51,1.47-2.18-.05-4.37,.03-6.54-.03-1.13-.03-1.48,.39-1.48,1.49,.04,7.56-.03,15.12,.06,22.68,.04,3.37,1.55,4.96,4.86,5.51,.92,.16,1.86,.23,2.78,.29,1.9,.11,1.89,.09,2.31,2.08,.23,1.06,.47,2.13,.72,3.19,.17,.72,.08,1.26-.82,1.24-2.96-.05-5.93,.23-8.88-.16-4.9-.65-7.47-3.37-8.82-8.95-.46-1.9-.55-3.85-.54-5.81,.02-6.47,.02-12.94,0-19.41,0-2.12-.02-2.12-2.2-2.14-1.56,0-3.12-.02-4.68,0-.82,.02-1.35-.19-1.34-1.14,.02-2.18,.02-4.37,0-6.54,0-.96,.52-1.16,1.34-1.15,1.64,.03,3.27,.02,4.91,0,1.94-.02,1.96-.03,1.97-1.89,.02-3.19,0-6.39,0-9.58,0-2.02,.03-2.03,2.08-2.04,1.64-.02,3.27,.03,4.91-.02,1.01-.03,1.39,.39,1.37,1.38-.05,1.79-.02,3.58,0,5.38h0Z"/>
  <path class="cls-2" d="M634.53,112.82v-29.91c0-.54,.02-1.09,0-1.63-.04-.76,.27-1.17,1.07-1.17,2.1,0,4.2,0,6.3,0,.7,0,.95,.4,.94,1.04,0,.47,0,.93,0,1.4v60.77c0,2.84,.26,2.56-2.69,2.59h-3.27c-1.55,0-2.34-.75-2.35-2.24v-30.85h0Z"/>
  <path class="cls-2" d="M726.63,122.67v-20.56c0-2.06,.02-2.08,2.01-2.09,1.55-.02,3.12,.05,4.67-.02,1.16-.05,1.54,.47,1.46,1.52-.03,.39,0,.78,0,1.17v40.65c0,2.74,.16,2.55-2.5,2.56-1.4,0-2.81-.05-4.2,.02-1.14,.05-1.54-.44-1.45-1.52,.05-.54,0-1.09,0-1.63v-20.09h.02Z"/>
  <path class="cls-2" d="M735.55,83.68c.02,3.11-2.53,5.88-5.41,5.89-2.7,0-5.6-3.05-5.58-5.88,.02-2.99,2.74-5.69,5.68-5.65,3.01,.04,5.29,2.47,5.31,5.64Z"/>
  <path class="cls-2" d="M324.26,99.46c5.87-.25,11.11,2.13,15.58,6.19,3.8,3.47,5.98,7.96,6.89,13,1.1,6.17,.33,12.09-2.84,17.62-3.49,6.11-8.64,9.93-15.52,11.32-5.11,1.03-10.11,.46-14.83-1.8-6.96-3.34-11.04-9-12.53-16.46-1.62-8.15-.2-15.79,5.32-22.14,4.55-5.25,10.51-7.93,17.92-7.71h0Zm-13.43,24.23c0,.54-.05,1.1,0,1.63,.53,5.42,3.09,9.61,7.83,12.27,5.45,3.05,13.1,.44,16.17-5.51,2.57-4.97,2.79-10.2,.6-15.35-3.69-8.67-13.78-10.31-19.88-4.57-3.26,3.07-4.76,7.03-4.73,11.53h0Z"/>
</svg>