<?xml version="1.0" encoding="UTF-8"?>
<svg id="Capa_1" data-name="Capa 1" xmlns="http://www.w3.org/2000/svg" viewBox="0 0 900.06 301.27">
  <defs>
    <style>
      .cls-1 {
        fill: #fff;
      }
    </style>
  </defs>
  <path class="cls-1" d="M119.42,7.77c-.19,.19-.43,.67-.72,1.44-.29,.77-.43,2.11-.43,4.03,0,2.69,.38,5.28,1.15,7.77V116.25c0,9.79-.96,19.19-2.87,28.2-1.92,9.02-5.23,17.03-9.93,24.03-4.7,7.01-11.13,12.56-19.28,16.69-8.16,4.12-18.56,6.19-31.22,6.19h-3.74c-10.93,0-19.81-1.49-26.62-4.46-6.81-2.97-12.13-6.76-15.97-11.37-3.84-4.61-6.43-9.64-7.77-15.11-1.34-5.46-2.02-10.69-2.02-15.68,0-4.21,.53-8.29,1.59-12.23,1.05-3.93,2.58-7.39,4.6-10.36,2.01-2.97,4.46-5.37,7.34-7.2,2.87-1.82,6.13-2.73,9.78-2.73,3.45,0,5.65,.91,6.62,2.73,.96,1.83,1.44,3.7,1.44,5.61,0,4.22-.87,7.73-2.59,10.51-1.73,2.78-3.6,5.23-5.61,7.34-2.01,2.11-3.88,4.22-5.61,6.33-1.73,2.12-2.59,4.7-2.59,7.77,0,9.2,3.07,15.82,9.21,19.85,6.14,4.03,13.81,6.04,23.02,6.04,8.06,0,15.06-1.63,21-4.89,5.94-3.26,10.89-7.38,14.82-12.37,3.93-4.99,6.86-10.41,8.78-16.26,1.91-5.85,2.88-11.36,2.88-16.55l-4.32,.28c-6.9,0-12.9-1.58-17.98-4.75-5.09-3.16-9.31-7.14-12.66-11.94-3.36-4.79-5.85-9.97-7.48-15.54-1.63-5.56-2.44-10.74-2.44-15.54v-10.07c0-3.64,.48-7.91,1.44-12.8,.96-4.89,2.3-9.97,4.03-15.25,1.72-5.28,3.83-10.46,6.33-15.54,2.49-5.08,5.18-9.64,8.06-13.67,2.88-4.03,5.94-7.28,9.21-9.78,3.26-2.49,6.62-3.74,10.07-3.74,1.34,0,2.88,.29,4.6,.86l20.14,1.44c1.34,.19,2.63,.67,3.89,1.44,1.24,.77,1.87,2.11,1.87,4.03Zm-24.75,34.53c.38-1.53,.76-2.97,1.15-4.32,.38-1.34,.58-2.88,.58-4.6,0-2.49-.63-4.75-1.87-6.76-1.25-2.01-3.5-3.02-6.76-3.02-4.22,0-7.68,1.73-10.36,5.18-2.69,3.45-4.75,7.58-6.19,12.37-1.44,4.8-2.44,9.79-3.02,14.96-.58,5.18-.86,9.4-.86,12.66,0,2.5,.19,6.09,.58,10.79,.38,4.7,1.3,9.35,2.73,13.96,1.44,4.6,3.45,8.63,6.05,12.08,2.59,3.46,6.09,5.18,10.5,5.18,.38,0,1.48-.09,3.31-.28,1.82-.19,3.21-.48,4.17-.87V42.3Z"/>
  <path class="cls-1" d="M185.31,117.11c-2.88,4.03-5.23,8.49-7.05,13.38-1.82,4.89-3.41,9.98-4.75,15.25-1.34,5.28-2.45,10.55-3.31,15.83-.86,5.28-1.77,10.32-2.73,15.11-.38,1.15-1.87,1.92-4.46,2.3-2.59,.39-4.46,.58-5.61,.58-3.45,0-6.29-.19-8.49-.58-2.21-.38-3.88-1.29-5.04-2.73-1.15-1.44-2.01-3.64-2.59-6.62-.58-2.97-1.05-6.95-1.44-11.94l3.74-85.46c0-2.49,1.34-3.74,4.03-3.74,.96,0,2.3,.15,4.03,.43,1.73,.29,3.55,.72,5.47,1.3,1.92,.57,3.55,1.29,4.89,2.16,1.34,.87,2.01,1.87,2.01,3.02v58.41c.19-.19,.48-.96,.87-2.3,1.34-3.45,2.97-7.72,4.89-12.81,1.92-5.08,4.03-9.93,6.33-14.53,2.3-4.6,4.75-8.53,7.34-11.8,2.59-3.26,5.22-4.9,7.91-4.9,3.45,0,6.08,.82,7.91,2.45,1.82,1.63,3.21,3.7,4.17,6.19,.95,2.5,1.53,5.18,1.73,8.06,.19,2.88,.28,5.66,.28,8.35,0,1.92-.19,5.08-.58,9.5-.39,4.41-.57,11.03-.57,19.85,0,4.99,.48,9.49,1.44,13.52,.96,4.03,2.88,6.04,5.76,6.04,2.11,0,4.03-.96,5.76-2.87,1.72-1.92,3.3-4.32,4.75-7.2,1.43-2.87,2.63-5.94,3.6-9.2,.95-3.26,1.53-6.33,1.72-9.21,.19-3.64,1.63-5.46,4.31-5.46,1.73,0,2.88,.57,3.45,1.72,.58,1.15,.86,2.5,.86,4.03v.58c-.19,3.84-.91,8.15-2.16,12.95-1.25,4.8-3.07,9.31-5.46,13.52-2.4,4.22-5.52,7.77-9.35,10.65-3.84,2.88-8.54,4.31-14.1,4.31-8.63,0-14.15-3.11-16.54-9.35-2.4-6.23-3.6-15.48-3.6-27.77l.58-21Z"/>
  <path class="cls-1" d="M297.53,162c0,4.61-1.54,8.16-4.6,10.65-3.07,2.49-6.58,4.31-10.5,5.47-3.93,1.15-7.87,1.87-11.8,2.16-3.94,.28-6.76,.43-8.49,.43-2.69,0-6-.29-9.92-.86-3.94-.57-7.78-1.48-11.52-2.73-3.74-1.25-6.9-3.02-9.49-5.32-2.59-2.3-3.88-5.18-3.88-8.63,0-2.11,.81-3.6,2.45-4.46,1.62-.86,3.21-1.3,4.75-1.3,2.11,0,4.17,.77,6.18,2.3,2.02,1.54,4.13,3.17,6.33,4.89,2.2,1.73,4.65,3.36,7.34,4.89,2.69,1.54,5.76,2.3,9.21,2.3,1.53,0,3.6-.53,6.18-1.58,2.59-1.05,3.88-2.92,3.88-5.61s-1.11-5.28-3.31-7.77c-2.2-2.49-4.99-5.08-8.34-7.77-3.36-2.69-6.95-5.47-10.79-8.35-3.84-2.88-7.43-6-10.79-9.35-3.35-3.36-6.14-7.05-8.34-11.08-2.2-4.03-3.31-8.44-3.31-13.23,0-6.71,2.16-12.37,6.48-16.98,4.31-4.6,9.4-8.25,15.25-10.93,5.85-2.69,11.85-4.6,17.99-5.75,6.14-1.15,10.94-1.73,14.39-1.73,3.26,0,6.52,.68,9.78,2.02,3.26,1.35,4.9,3.93,4.9,7.77,0,1.15-.24,2.83-.72,5.03-.48,2.21-1.25,4.37-2.3,6.48-1.06,2.11-2.45,3.98-4.17,5.61-1.73,1.63-3.94,2.45-6.62,2.45-.77,0-1.54-.34-2.3-1.01-.77-.67-1.63-1.44-2.58-2.3-.96-.87-1.97-1.63-3.02-2.3-1.06-.67-2.26-1.01-3.6-1.01-6.72,0-11.42,1.97-14.1,5.9-2.69,3.93-4.03,8.11-4.03,12.52,0,3.84,2.26,7.87,6.76,12.09,4.5,4.22,9.49,8.44,14.96,12.66,5.46,4.22,10.45,8.39,14.96,12.51,4.51,4.13,6.76,8.11,6.76,11.94Z"/>
  <path class="cls-1" d="M303.86,127.76c.19-9.78,.48-19.76,.87-29.92,.38-10.17,.76-19.57,1.15-28.2,0-1.53-1.54-2.59-4.6-3.16-3.07-.57-6.52-1.15-10.36-1.73-3.83-.58-7.29-1.48-10.36-2.74-3.07-1.25-4.6-3.31-4.6-6.19,0-2.49,2.49-3.93,7.48-4.32,4.99-.38,12.37-.57,22.16-.57,.76,0,1.29-1.15,1.58-3.46,.29-2.3,.48-5.22,.58-8.78,.1-3.55,.19-7.34,.28-11.36,.1-4.03,.25-7.82,.44-11.37,.19-3.55,.52-6.48,1.01-8.78,.48-2.3,1.1-3.45,1.87-3.45,.96,0,2.69,.19,5.18,.58,2.49,.38,5.08,.91,7.77,1.58,2.69,.67,5.03,1.49,7.05,2.45,2.01,.96,3.02,2.02,3.02,3.17l-3.16,37.41c0,1.15,1.01,1.97,3.02,2.44,2.02,.48,4.61,.77,7.78,.87,3.16,.1,6.52,.14,10.06,.14s6.91,.29,10.08,.86c3.16,.57,5.76,1.49,7.77,2.73,2.01,1.25,3.02,3.12,3.02,5.61,0,.39-.19,1.01-.58,1.87-.39,.86-.87,1.3-1.44,1.3-.39,0-.91-.29-1.58-.86-.67-.58-2.45-.87-5.33-.87-.77,0-2.87,.1-6.33,.29-3.45,.19-7.1,.48-10.94,.86-3.84,.39-7.34,.82-10.5,1.3-3.17,.48-4.94,1.11-5.32,1.87-.19,.38-.43,2.64-.73,6.76-.28,4.13-.57,9.54-.86,16.26-.29,6.72-.53,14.43-.72,23.16-.19,8.73-.29,17.89-.29,27.48,0,3.64,.19,7.19,.58,10.65,.38,3.45,.95,6.57,1.72,9.35,.77,2.79,1.77,5.04,3.02,6.76,1.25,1.73,2.73,2.59,4.46,2.59,2.5,0,4.8-1.05,6.91-3.16,2.11-2.11,4.03-4.99,5.76-8.63,1.72-3.64,3.26-7.77,4.6-12.38,1.34-4.6,2.49-9.3,3.45-14.1,.57-2.88,1.24-4.94,2.02-6.19,.76-1.24,1.91-1.87,3.45-1.87,1.34,0,2.54,.43,3.6,1.3,1.05,.86,1.58,2.83,1.58,5.89,0,1.92-.1,3.17-.29,3.74-.57,3.45-1.68,8.2-3.31,14.24-1.63,6.04-3.84,11.99-6.62,17.84-2.78,5.85-6.18,10.98-10.22,15.4-4.03,4.41-8.73,6.62-14.1,6.62s-9.69-1.48-13.53-4.46c-3.84-2.98-7.05-7.09-9.64-12.37-2.59-5.27-4.56-11.51-5.9-18.7-1.34-7.19-2.02-14.91-2.02-23.16v-2.59Z"/>
  <path class="cls-1" d="M474.49,148.48c-.39,2.69-1.34,5.85-2.88,9.49-1.54,3.64-3.5,7.15-5.9,10.5-2.4,3.36-5.18,6.19-8.35,8.49-3.16,2.3-6.67,3.45-10.5,3.45-5.75,0-10.79-2.2-15.11-6.62-4.31-4.41-6.95-10.64-7.91-18.71-1.15,3.07-2.49,6.62-4.03,10.65-1.54,4.03-3.45,7.77-5.75,11.23-2.3,3.45-4.94,6.37-7.91,8.77-2.98,2.39-6.48,3.6-10.51,3.6-1.16,0-2.02-.1-2.59-.29-.58-.19-1.2-.43-1.87-.72-.68-.29-1.44-.53-2.3-.72-.86-.19-2.07-.29-3.6-.29-4.6,0-8.48-1.49-11.65-4.46-3.17-2.97-5.72-6.76-7.63-11.37-1.92-4.61-3.31-9.64-4.18-15.11-.86-5.47-1.29-10.6-1.29-15.39,0-11.51,.63-22.44,1.87-32.8,1.24-10.36,3.31-19.52,6.19-27.48,2.87-7.96,6.61-14.29,11.22-18.99,4.61-4.7,10.17-7.05,16.69-7.05,3.83,0,6.76,.34,8.77,1.01,2.02,.68,3.88,1.44,5.61,2.3,1.72,.86,3.6,1.78,5.61,2.74,2.02,.96,4.85,1.73,8.49,2.3,4.03,2.3,6.86,5.04,8.49,8.21,1.62,3.16,2.68,6.57,3.16,10.21,.48,3.64,.62,7.43,.43,11.36-.2,3.93,0,7.82,.57,11.66,0,.19,.43,.48,1.29,.86,.86,.39,1.88,.82,3.02,1.3,1.15,.48,2.16,1.15,3.02,2.02,.86,.86,1.29,1.97,1.29,3.31v1.15c-1.92,4.99-3.07,9.41-3.45,13.24-.38,3.84-.57,8.44-.57,13.81,0,2.69,.14,5.61,.43,8.77,.29,3.17,.76,6.14,1.44,8.92,.67,2.78,1.67,5.08,3.01,6.91,1.34,1.83,3.07,2.73,5.18,2.73,2.3,0,4.36-1.15,6.19-3.45,1.82-2.3,3.35-4.94,4.6-7.92,1.24-2.97,2.3-5.99,3.16-9.06,.87-3.07,1.39-5.37,1.59-6.91,.38-2.3,1.34-3.46,2.88-3.46,.96,0,1.87,.53,2.73,1.58,.87,1.05,1.3,2.93,1.3,5.61v2.16c0,.67-.1,1.49-.29,2.45Zm-53.24-46.62c0-2.11-.19-4.6-.58-7.48-.39-2.88-1.05-5.56-2.01-8.06-.96-2.49-2.41-4.6-4.31-6.33-1.93-1.72-4.52-2.59-7.77-2.59-5.38,0-9.74,2.45-13.1,7.34-3.36,4.89-5.99,10.64-7.91,17.26-1.92,6.62-3.17,13.43-3.74,20.43-.57,7.01-.86,12.52-.86,16.55,0,3.06,.14,6.76,.43,11.07,.29,4.32,.81,8.4,1.58,12.23,.77,3.84,1.87,7.1,3.31,9.78,1.44,2.69,3.31,4.03,5.61,4.03,5.56,0,9.82-2.16,12.8-6.47,2.97-4.32,5.23-9.69,6.77-16.11,1.53-6.42,2.63-13.33,3.31-20.72,.67-7.38,1.29-14.14,1.87-20.28,.39-3.26,1.25-5.33,2.59-6.19,1.34-.86,2.01-1.48,2.01-1.87v-2.59Z"/>
  <path class="cls-1" d="M561.39,187.33c0,1.92-.86,3.26-2.59,4.03-1.73,.76-3.36,1.15-4.9,1.15l-5.75-.57c-.96,0-1.44,.57-1.44,1.73l-.28,3.45c.19,5.18,.28,11.7,.28,19.57v22.73c0,7.67-.24,15.2-.72,22.59-.48,7.38-1.58,14-3.31,19.86-1.72,5.85-4.17,10.54-7.34,14.1-3.16,3.55-7.53,5.32-13.09,5.32-4.8,0-9.84-.24-15.11-.72-5.28-.48-10.07-1.68-14.39-3.6-4.31-1.92-7.87-4.74-10.65-8.49-2.79-3.74-4.18-8.77-4.18-15.1s.73-12.8,2.17-19.43c1.45-6.62,3.52-13.05,6.23-19.28,2.71-6.24,5.93-12.18,9.7-17.84,3.76-5.66,7.87-10.7,12.31-15.11,2.32-2.3,4.88-4.65,7.68-7.05,2.8-2.4,5.26-4.37,7.38-5.9v-.29c.38-4.03,.67-8.06,.87-12.09,.18-4.03,.28-8.15,.28-12.37-.96,1.72-2.11,4.08-3.46,7.05-1.35,2.98-2.94,5.81-4.77,8.49-1.84,2.68-3.91,5.04-6.22,7.05-2.32,2.01-4.92,3.02-7.81,3.02-1.54,0-2.89-.29-4.05-.86-1.16-.58-2.8-.87-4.92-.87-5.4-.39-9.88-1.82-13.45-4.31-3.57-2.49-6.36-5.94-8.38-10.36-2.02-4.41-3.42-9.64-4.2-15.68-.78-6.04-1.16-12.81-1.16-20.29,0-9.01,.52-18.32,1.59-27.91,1.06-9.59,2.93-18.37,5.63-26.33,2.69-7.96,6.31-14.48,10.83-19.57,4.53-5.08,10.25-7.62,17.19-7.62,.77,0,1.78,.29,3.03,.86,1.25,.58,2.6,1.2,4.05,1.87,1.44,.67,2.88,1.34,4.33,2.01,1.44,.67,2.55,1.1,3.32,1.3,3.85,.77,7.42,1.72,10.69,2.88,3.27,1.15,6.07,2.64,8.38,4.46,2.31,1.82,4.13,4.22,5.48,7.19,1.35,2.98,2.02,6.67,2.02,11.08,0,3.07-.24,5.85-.72,8.35-.48,2.5-.72,5.66-.72,9.49,0,1.54,.54,2.59,1.63,3.17,1.09,.58,2.34,1.06,3.74,1.44,1.41,.39,2.68,.82,3.83,1.3,1.16,.48,1.73,1.49,1.73,3.02,0,.39-.43,1.3-1.29,2.73-.87,1.44-1.4,2.35-1.58,2.74-.58,1.54-1.06,3.99-1.44,7.34-.39,3.36-.67,7.01-.86,10.93-.19,3.93-.34,7.96-.43,12.08-.1,4.13-.15,7.82-.15,11.08v9.92c0,4.13,.09,7.54,.28,10.22h1.16c.38,0,.76-.05,1.15-.14,.38-.1,.67-.14,.86-.14,1.73,0,4.08,.53,7.05,1.58,2.97,1.05,4.46,2.64,4.46,4.75Zm-36.54-88.91c0-2.11-.19-4.51-.58-7.19-.39-2.69-1.07-5.22-2.03-7.62-.97-2.4-2.37-4.41-4.2-6.04-1.84-1.63-4.1-2.45-6.81-2.45-3.67,0-7.1,1.44-10.28,4.32-3.19,2.88-6,6.95-8.41,12.23-2.42,5.28-4.34,11.7-5.79,19.28-1.45,7.58-2.18,16.16-2.18,25.75,0,4.03,.14,8.2,.43,12.52,.28,4.32,.76,8.2,1.44,11.65,.68,3.45,1.73,6.33,3.17,8.63,1.44,2.3,3.31,3.45,5.62,3.45,4.03,0,7.57-1.73,10.65-5.18,3.07-3.45,5.61-7.72,7.63-12.8,2.01-5.08,3.55-10.36,4.6-15.83,1.05-5.46,1.67-10.21,1.87-14.24,.2-5.56,.51-9.35,.92-11.37,.4-2.01,.81-3.31,1.22-3.89,1.23-1.53,1.99-3.35,2.29-5.47,.31-2.11,.46-4.03,.46-5.75Zm-1.16,99.85c-4.45,3.06-8.66,7.38-12.62,12.94-3.97,5.56-7.4,11.61-10.31,18.13-2.9,6.52-5.18,13.14-6.82,19.86-1.64,6.71-2.47,12.76-2.47,18.13,0,1.92,.19,4.04,.58,6.33,.38,2.3,1.01,4.46,1.88,6.48,.88,2.01,2.13,3.69,3.77,5.03,1.64,1.34,3.63,2.02,5.95,2.02,4.06,0,7.4-1.68,10.01-5.04,2.61-3.35,4.65-7.34,6.1-11.94,1.45-4.61,2.42-9.31,2.9-14.1,.48-4.8,.73-8.63,.73-11.51v-2.59c0-1.15,.05-3.36,.14-6.62,.1-3.27,.14-7.82,.14-13.67v-23.45Z"/>
  <path class="cls-1" d="M647.42,139.27c0,1.35-.43,4.56-1.29,9.64-.87,5.08-2.41,10.46-4.61,16.12-2.21,5.66-5.18,10.7-8.92,15.11-3.74,4.41-8.48,6.61-14.24,6.61-6.14,0-11.04-2.16-14.67-6.47-3.65-4.31-6.43-9.5-8.35-15.54-1.92-6.04-3.16-12.37-3.74-18.99-.57-6.62-.86-12.13-.86-16.55,0-4.99,.29-10.02,.86-15.11,.58-5.08,.96-10.12,1.15-15.11,0-1.53-.77-2.49-2.3-2.87-1.54-.38-2.98-.57-4.32-.57-2.3,0-3.74,.28-4.31,.86-.58,.57-.97,1.25-1.16,2.01l-1.15,9.21c-.77,6.14-1.59,12.04-2.45,17.7-.86,5.66-1.82,10.64-2.88,14.96-1.06,4.31-2.3,7.77-3.74,10.36-1.44,2.59-3.11,3.89-5.03,3.89h-.29c-.77,0-1.49-.19-2.16-.58-.67-.38-1-1.34-1-2.88,0-.77,.19-1.92,.57-3.46,1.53-6.71,2.49-12.27,2.88-16.69,.38-4.41,.67-8.34,.86-11.8v-2.01c0-.95,.04-2.11,.14-3.45,.09-1.34,.14-2.97,.14-4.89v-14.1c0-2.3-.19-4.8-.57-7.48l-.86-16.98c0-1.15,.47-2.2,1.43-3.17,.96-.96,2.21-1.82,3.74-2.59,1.53-.76,3.17-1.34,4.9-1.72,1.72-.38,3.25-.58,4.6-.58,3.26,0,4.89,2.12,4.89,6.33v1.44l-.29,6.33v1.73c0,1.35,.29,2.16,.86,2.44,.57,.29,1.73,.63,3.45,1.01h.86c1.53,.19,4.03,.38,7.49,.57,3.45,.19,6.9,.58,10.36,1.15,3.45,.58,6.48,1.49,9.07,2.73,2.59,1.25,3.88,3.02,3.88,5.33,0,.77-.19,1.87-.57,3.31-.39,1.44-.87,2.88-1.44,4.32-.57,1.44-1.06,2.73-1.43,3.88-.39,1.15-.58,1.92-.58,2.3-3.45,13.24-5.18,27.04-5.18,41.44,0,1.15,.09,3.26,.29,6.33,.19,3.07,.58,6.23,1.15,9.5,.58,3.26,1.44,6.14,2.59,8.63,1.15,2.5,2.6,3.74,4.32,3.74,2.88,0,5.47-1.77,7.77-5.33,2.3-3.55,4.32-7.67,6.04-12.37,1.73-4.7,3.12-9.45,4.17-14.25,1.05-4.79,1.77-8.34,2.16-10.65,.38-2.1,1.01-3.4,1.87-3.88,.87-.48,1.68-.72,2.45-.72,2.68,0,4.03,1.72,4.03,5.18,0,.38-.05,1.39-.14,3.02-.1,1.63-.25,2.83-.43,3.59Z"/>
  <path class="cls-1" d="M753.03,148.48c-.39,2.69-1.35,5.85-2.88,9.49-1.54,3.64-3.51,7.15-5.9,10.5-2.4,3.36-5.18,6.19-8.34,8.49-3.17,2.3-6.67,3.45-10.5,3.45-5.75,0-10.79-2.2-15.11-6.62-4.31-4.41-6.95-10.64-7.91-18.71-1.15,3.07-2.49,6.62-4.03,10.65-1.53,4.03-3.45,7.77-5.75,11.23-2.31,3.45-4.94,6.37-7.92,8.77-2.97,2.39-6.47,3.6-10.5,3.6-1.16,0-2.02-.1-2.59-.29-.58-.19-1.2-.43-1.87-.72-.68-.29-1.44-.53-2.3-.72-.86-.19-2.07-.29-3.6-.29-4.6,0-8.49-1.49-11.65-4.46-3.17-2.97-5.71-6.76-7.62-11.37-1.92-4.61-3.31-9.64-4.18-15.11-.86-5.47-1.3-10.6-1.3-15.39,0-11.51,.63-22.44,1.87-32.8,1.24-10.36,3.31-19.52,6.18-27.48,2.88-7.96,6.62-14.29,11.23-18.99,4.61-4.7,10.17-7.05,16.69-7.05,3.84,0,6.77,.34,8.77,1.01,2.02,.68,3.89,1.44,5.61,2.3,1.72,.86,3.6,1.78,5.61,2.74,2.02,.96,4.85,1.73,8.49,2.3,4.03,2.3,6.86,5.04,8.49,8.21,1.62,3.16,2.68,6.57,3.16,10.21,.47,3.64,.62,7.43,.43,11.36-.19,3.93,0,7.82,.57,11.66,0,.19,.43,.48,1.29,.86,.86,.39,1.87,.82,3.02,1.3,1.15,.48,2.16,1.15,3.02,2.02,.86,.86,1.29,1.97,1.29,3.31v1.15c-1.92,4.99-3.07,9.41-3.45,13.24-.39,3.84-.57,8.44-.57,13.81,0,2.69,.14,5.61,.43,8.77,.29,3.17,.76,6.14,1.44,8.92,.67,2.78,1.68,5.08,3.02,6.91,1.34,1.83,3.06,2.73,5.18,2.73,2.3,0,4.36-1.15,6.18-3.45,1.82-2.3,3.35-4.94,4.61-7.92,1.24-2.97,2.3-5.99,3.16-9.06,.87-3.07,1.39-5.37,1.59-6.91,.38-2.3,1.34-3.46,2.88-3.46,.96,0,1.87,.53,2.73,1.58,.87,1.05,1.3,2.93,1.3,5.61v2.16c0,.67-.1,1.49-.29,2.45Zm-53.24-46.62c0-2.11-.19-4.6-.58-7.48-.39-2.88-1.05-5.56-2.01-8.06-.96-2.49-2.41-4.6-4.31-6.33-1.92-1.72-4.52-2.59-7.77-2.59-5.38,0-9.74,2.45-13.09,7.34-3.36,4.89-6,10.64-7.91,17.26-1.91,6.62-3.17,13.43-3.74,20.43-.57,7.01-.86,12.52-.86,16.55,0,3.06,.15,6.76,.43,11.07,.28,4.32,.81,8.4,1.58,12.23,.77,3.84,1.87,7.1,3.31,9.78,1.44,2.69,3.31,4.03,5.61,4.03,5.56,0,9.82-2.16,12.8-6.47,2.97-4.32,5.23-9.69,6.76-16.11,1.53-6.42,2.64-13.33,3.31-20.72,.67-7.38,1.29-14.14,1.87-20.28,.38-3.26,1.25-5.33,2.59-6.19,1.34-.86,2.01-1.48,2.01-1.87v-2.59Z"/>
  <path class="cls-1" d="M841.08,109.06c-2.69,5.18-5.19,10.64-7.48,16.4-2.31,5.75-4.04,10.26-5.19,13.53-.19,.96-.72,2.97-1.58,6.04-.86,3.07-1.82,6.47-2.88,10.21-1.05,3.74-1.96,7.44-2.73,11.08-.77,3.65-1.15,6.62-1.15,8.92,0,.97-.86,1.83-2.59,2.59-1.72,.77-3.93,1.15-6.61,1.15-4.23,0-7.58-.58-10.08-1.73-2.5-1.15-4.36-3.02-5.61-5.61-1.25-2.59-2.01-5.99-2.3-10.22-.29-4.22-.43-9.3-.43-15.25v-21.58c0-1.53-.05-3.06-.14-4.6-.1-1.53-.43-2.49-1.01-2.88-.96,.39-2.16,2.88-3.6,7.48-1.44,4.61-2.78,10.22-4.03,16.83-1.25,6.62-2.35,13.57-3.31,20.87-.96,7.29-1.44,13.81-1.44,19.57,0,2.11-1.1,3.35-3.31,3.74-2.2,.38-4.65,.58-7.34,.58-.77,0-2.06-.15-3.89-.44-1.82-.28-3.65-.63-5.47-1.01-1.83-.38-3.5-.91-5.04-1.58-1.54-.68-2.49-1.49-2.87-2.45-.96-2.49-1.69-6.62-2.16-12.37-.48-5.75-.72-14.67-.72-26.76,0-7.1,.14-15.35,.43-24.75,.29-9.4,.62-20.43,1-33.09,0-1.73-.09-3.98-.28-6.76-.19-2.78-.29-4.36-.29-4.75,0-1.53,.63-2.45,1.87-2.73,1.24-.28,2.16-.43,2.73-.43,1.34,0,2.92,.15,4.75,.43,1.82,.29,3.64,.62,5.47,1.01,1.82,.39,3.5,.82,5.03,1.29,1.54,.48,2.59,.92,3.17,1.3v69.35c.96-3.83,2.06-8.29,3.31-13.38,1.25-5.08,2.69-10.12,4.31-15.11,1.63-4.98,3.4-9.59,5.33-13.81,1.91-4.22,3.93-7.29,6.04-9.2,.77-.58,2.21-1.01,4.32-1.3,2.11-.29,3.83-.43,5.18-.43,.96,0,2.15,.14,3.6,.43,1.44,.29,2.83,.72,4.17,1.3,1.34,.58,2.54,1.3,3.6,2.16,1.05,.86,1.67,1.87,1.87,3.02v49.21c0,1.15,.19,1.73,.58,1.73s1.47-2.59,3.28-7.77c1.81-5.18,3.96-11.31,6.44-18.41,2.48-7.09,5.15-14.39,8.01-21.87,2.86-7.48,5.44-13.42,7.72-17.84,.38-.77,1.66-1.19,3.86-1.29,2.19-.1,4.15-.14,5.86-.14,1.33,0,3.14,.43,5.43,1.29,2.28,.86,4.53,2.06,6.73,3.6,2.2,1.54,4.11,3.26,5.74,5.18,1.62,1.92,2.44,3.93,2.44,6.04,0,.39-.57,1.49-1.72,3.31-1.15,1.83-1.92,3.69-2.3,5.61-1.34,5.37-2.26,10.65-2.73,15.82-.49,5.18-.73,11.8-.73,19.86,0,3.45,.14,6.91,.43,10.36,.29,3.45,.77,6.58,1.44,9.35,.67,2.78,1.58,5.04,2.74,6.76,1.15,1.73,2.68,2.59,4.6,2.59,2.68,0,5.08-.91,7.19-2.74,2.11-1.82,3.93-4.27,5.46-7.34,1.53-3.06,2.88-6.66,4.03-10.79,1.16-4.13,2.11-8.39,2.88-12.81,.95-4.61,2.69-6.91,5.18-6.91,1.53,0,2.54,.39,3.02,1.15,.48,.77,.72,2.49,.72,5.18,0,1.54-.1,2.59-.29,3.17-.19,2.5-1.01,6.38-2.44,11.65-1.44,5.28-3.45,10.55-6.04,15.83-2.59,5.28-5.8,9.88-9.64,13.81-3.84,3.93-8.26,5.9-13.24,5.9-5.92,0-10.78-1.4-14.57-4.17-3.78-2.78-6.73-6.52-8.81-11.23-2.09-4.7-3.55-10.12-4.41-16.26-.86-6.14-1.28-12.56-1.28-19.28v-2.01l1.73-23.6Z"/>
</svg>