<?xml version="1.0" encoding="UTF-8"?>
<svg id="Capa_1" data-name="Capa 1" xmlns="http://www.w3.org/2000/svg" viewBox="0 0 786.95 231.09">
  <defs>
    <style>
      .cls-1 {
        fill: #fff;
      }
    </style>
  </defs>
  <path class="cls-1" d="M187.06,176.65c-1.35,.2-2.7,.56-4.05,.56-28.53,.04-57.05,0-85.58,.03-9.33,0-15.34-5.25-19.91-12.59-9.19-14.77-18.25-29.64-27.75-45.11-4.69,5.69-11.97,8.96-10.9,18.18,.69,5.99-.02,12.14,.17,18.21,.24,7.99,1.75,15.3,11.06,17.8,.76,.21,1.18,1.63,2.14,3.06-1.92,.22-2.94,.43-3.96,.43-14.81,.02-29.62,.05-44.43-.05-1.28,0-2.55-.9-3.83-1.38,1.02-.87,1.92-2.03,3.09-2.59,8.22-3.85,9.83-11.17,9.87-19.08,.12-22.58,.05-45.17,.05-67.75,0-18.38,.08-36.76-.04-55.13-.06-8.66-1.75-16.57-11.74-19.41-.57-.16-1.38-1.69-1.2-1.92,.62-.82,1.54-1.73,2.49-1.95C11.76,5.84,21.04,3.84,30.3,1.83c2.56-.55,5.13-1.03,8.18-1.63V125.68c2.49-2.68,4.15-4.35,5.68-6.13,8.51-9.9,17.13-19.73,25.42-29.81,2.62-3.18,4.8-6.91,6.42-10.71,2.69-6.29,1.18-10.01-4.46-13.91-1.13-.78-1.84-2.17-2.74-3.29,.26-.39,.52-.79,.78-1.18h15.73c8.42,0,16.83-.05,25.25,.06,1.05,0,2.08,.82,3.12,1.26-.59,.92-.96,2.36-1.79,2.69-19.63,7.85-33.29,23.02-47.04,38.09-4.15,4.55-8.27,9.13-13.07,14.43,18.46-2.73,30.55,4.8,39.05,19.62,4.86,8.49,10.32,16.64,15.61,24.88,3.26,5.09,7.55,9.04,13.34,11.17,10.84,3.98,20.29-1.17,22.53-12.48,.6-3.03,.85-6.17,.86-9.26,.06-39.56,.06-79.11,0-118.67,0-2.93-.26-5.9-.77-8.79-1.18-6.74-4.56-11.49-12.82-12,.8-1.53,1.17-3.3,1.9-3.47,12.23-2.8,24.5-5.4,37.52-8.21V6.15c0,48.9-.02,97.8,.04,146.7,0,3.24,.2,6.58,1,9.7,1.65,6.38,5.61,10.61,12.51,11.51,1.48,.2,2.92,.63,4.39,.96,.03,.54,.06,1.09,.08,1.63h.03Z"/>
  <path class="cls-1" d="M288.35,60.67c18.12,0,34.78,0,51.45,0,.76,0,1.53,.14,4,.38-1.8,1.7-2.57,2.94-3.63,3.34-5.53,2.07-7.63,4.18-7.01,10,.69,6.42,1.92,12.92,3.96,19.03,6.81,20.46,14.09,40.76,21.21,61.12,.23,.67,.67,1.27,1.22,2.28,8.86-24.5,17.54-48.5,26.23-72.5,.16-.44,.43-.84,.54-1.28,2.28-9.26-.99-15.31-9.97-18.71-.95-.36-1.63-1.41-2.44-2.15,.96-.51,1.94-1.46,2.9-1.46,26.03-.06,52.06-.02,78.08,.03,.29,0,.57,.19,1.6,.54v5.13c0,28.81-.04,57.62,.05,86.43,0,3.38,.37,6.84,1.12,10.13,1.13,4.94,4.06,8.61,8.97,10.56,1.03,.41,1.7,1.7,2.54,2.58-.23,.37-.47,.74-.7,1.11h-32.15c-5.3,0-10.6,.07-15.9-.07-.97-.03-1.92-.96-2.88-1.48,.63-.72,1.11-1.82,1.89-2.12,8.12-3.06,10.77-9.86,10.85-17.46,.29-26.94,.25-53.88,.03-80.82-.07-8.76-9.62-13.65-19.45-10.27-9.62,3.31-15.02,11.14-18.59,19.82-5.92,14.33-11.01,29.01-16.24,43.61-5.4,15.05-10.63,30.16-15.78,45.3-.91,2.66-2.18,3.72-4.99,3.53-4.65-.31-10.36,1.28-13.65-.91-2.99-1.99-3.3-7.95-4.85-12.14-9.95-26.75-19.75-53.55-29.98-80.19-3.14-8.16-7.56-15.75-16.24-19.64-.85-.38-1.18-1.94-2.19-3.74h0Z"/>
  <path class="cls-1" d="M300.18,175.03c-.67,3.42-4.82,4.93-14.55,5.28-13.87,.51-18.86-3.84-23.13-19.6-4.9,4.31-9.56,9.54-15.25,13.18-11.68,7.46-24.63,8.38-37.7,4.13-16.62-5.4-23.07-25.6-13.22-40.12,6.38-9.4,15.76-14.46,26.15-17.68,11.57-3.58,23.31-6.59,35.08-9.48,3.7-.91,5.34-2.27,4.91-6.22-.93-8.61-.53-17.51-2.59-25.82-2.99-12.03-12-17.37-24.22-16.35-9.08,.75-15.33,8.48-13.93,17.44,.52,3.35,1.57,6.63,2.37,9.95,1.67,6.93-1.12,12.21-7.59,14.39-7.53,2.53-14.36,.21-16.94-6.25-3.86-9.62-1.04-18.12,5.79-25.22,13.71-14.26,30.7-16.9,49.42-13.42,17.55,3.26,27.67,13.83,31.18,30.9,1.18,5.74,1.71,11.7,1.8,17.57,.23,16.19,.08,32.38,.08,48.58,0,1.55-.04,3.12,.08,4.66,.69,9.03,3.69,12.45,12.24,14.07h0Zm-38.35-62.37c-11.69,5.62-23.35,10.07-33.77,16.52-12.31,7.62-12.63,27.87-1.6,35.87,11.34,8.23,32.85-.4,35.03-15.26,1.7-11.65,.35-23.75,.35-37.14h0Z"/>
  <path class="cls-1" d="M636.52,180.33c-33.24-.17-59.52-27.42-59.34-61.55,.18-34.1,26.76-61.17,59.94-61.04,32.39,.12,59.26,28.18,59.02,61.61-.24,33.82-26.96,61.15-59.62,60.99h0Zm-30.59-62.31c.16,16.67,3.34,30.78,9.6,42.58,3.42,6.45,7.83,12.01,15.06,14.51,8.65,2.99,17.92-.89,24.34-10.1,8.86-12.7,11.86-27.15,12.26-42.25,.47-17.4-2.62-34.06-12.21-48.93-9.89-15.34-25.87-15.74-36.64-1.02-10.03,13.7-11.9,29.68-12.41,45.21h0Z"/>
  <path class="cls-1" d="M590.11,60.67c-.93,1.71-1.28,3.39-2.04,3.61-9.27,2.59-13.99,10.01-17.29,17.82-7.06,16.71-13.53,33.7-19.56,50.82-8.25,23.42-15.64,47.12-23.87,70.55-3.02,8.58-6.54,17.25-14.66,22.7-9.79,6.57-20.1,6.24-30.11,1.02-9.25-4.82-14.27-12.8-13.9-23.53,.35-10.19,8.65-16.48,18.57-14.26,7.89,1.77,11.18,8.19,7.92,15.56-.88,1.99-2,3.87-2.96,5.82-2.44,4.89-.47,10.21,4.53,12.33,6.67,2.82,14.57,.5,19.01-5.74,7.62-10.7,10.14-22.41,5.46-34.86-12.65-33.54-25.55-66.99-38.51-100.41-1.44-3.72-3.44-7.43-5.98-10.47-2.39-2.87-5.87-4.81-8.79-7.26-.91-.76-1.54-1.85-2.88-3.51h55.4c-1.7,1.81-2.38,3.09-3.43,3.56-5.55,2.48-8.1,5.1-7,11.15,1.66,9.09,4.22,18.08,7.24,26.83,6.17,17.9,12.89,35.61,19.39,53.4,.21,.56,.48,1.11,.85,1.99,5.62-16.34,11.23-32.3,16.58-48.34,3.08-9.25,6.26-18.53,8.46-28.01,2.23-9.58-.86-13.98-10.08-17.16-.74-.25-1.19-1.32-1.78-2.01,.97-.52,1.94-1.46,2.91-1.48,7.79-.12,15.59-.07,23.39-.07h13.09Z"/>
  <path class="cls-1" d="M696.16,14.63h90.79c-5.67,9.05-10.76,17.7-16.43,25.96-2.36,3.45-2,5.84,.12,9.04,5.44,8.23,10.58,16.66,16.2,25.6h-90.69V14.63h0Z"/>
</svg>