<?xml version="1.0" encoding="UTF-8"?>
<svg id="Capa_1" data-name="Capa 1" xmlns="http://www.w3.org/2000/svg" viewBox="0 0 1151.76 231.35">
  <defs>
    <style>
      .cls-1 {
        fill: #fff;
      }
    </style>
  </defs>
  <path class="cls-1" d="M259.13,0c2.41,1.67,5.34,1.41,8.01,2.14,18.55,5.02,32.91,16.15,44.69,30.79,19.21,23.88,29.58,51.57,34.6,81.47,2.65,15.82,3.47,31.77,2.59,47.75-.84,15.33-4.36,30.08-12.43,43.32-12.49,20.49-31.5,27.51-54.7,25.57-18.36-1.54-32.15-11.07-43.86-24.4-15.08-17.17-26.65-36.72-38.31-56.2-8.15-13.61-16.41-27.15-24.68-40.8-1.79,1.06-2.29,3.02-3.21,4.63-12.37,21.47-24.02,43.37-37.41,64.23-8.98,13.98-18.84,27.26-31.37,38.45-24.35,21.74-62.37,16.56-80-.31-12.16-11.63-18.27-26.18-21.28-42.36-.47-2.52,0-5.3-1.75-7.53v-33.17c1.31-.56,.84-1.77,.94-2.72,2.99-27.88,10.53-54.35,24.57-78.82C36.98,32.05,51.8,15.53,73.21,5.69c5.68-2.61,11.86-3.54,17.66-5.69h19.79c.23,.67,.78,.77,1.39,.85,11.17,1.56,21.29,5.81,30.63,11.98,10.83,7.15,19.93,16.19,28.44,25.87,2.8,3.18,5.52,6.43,8.26,9.63,4.74-5.72,9.07-11.26,13.73-16.5,12.8-14.41,27.26-26.4,46.72-30.82,.61-.14,1.13-.33,1.29-1.01h17.99Zm56.8,148.57c-.13-21.51-3.85-43.68-10.94-63.16-6.3-17.3-14.73-33.33-29.37-45.26-17.42-14.19-36.86-13.81-53.8,.9-9.59,8.33-16.76,18.62-23.83,29.01-1.28,1.88-.76,3.19,.31,4.81,17.73,26.76,33.23,54.91,50.88,81.72,7.06,10.72,13.72,21.79,23.48,30.42,14.09,12.46,33.32,7.44,39.68-10.23,3.29-9.14,3.6-18.64,3.6-28.19Zm-278.18,.34c-.21,6.76,.51,13.42,1.85,20.01,3.46,17.06,13.25,25.61,28.26,24.66,6.75-.43,12.25-3.63,17.16-8.01,6.64-5.92,12.03-12.89,17.13-20.11,17.24-24.42,32.56-50.1,49.06-75.01,5.87-8.87,5.85-8.93-.7-17.57-8.24-10.88-16.84-21.47-28.63-28.79-14.94-9.28-30.91-8.18-44.61,2.79-7.83,6.27-13.74,14.2-18.65,22.77-14.07,24.52-19.77,51.31-20.85,79.25Z"/>
  <path class="cls-1" d="M540.56,141.09c6.01-10.83,11.72-21.11,17.42-31.39,18.24-32.87,36.51-65.72,54.64-98.66,1.57-2.85,3.18-3.97,6.52-3.9,11.39,.24,22.79,.21,34.18,.02,3.22-.05,4.33,.56,4.32,4.09-.12,70.66-.11,141.32-.02,211.97,0,3.09-.79,4.1-3.97,4.03-8.99-.2-18-.28-26.98,.02-3.91,.13-4.97-.85-4.95-4.87,.15-52.28,.1-104.57,.1-156.85v-5.39c-1.79,1-2.17,2.61-2.88,3.88-20.01,35.81-40.05,71.61-59.91,107.51-1.7,3.07-3.49,4.12-6.93,4.01-8.24-.27-16.49-.23-24.73-.01-2.98,.08-4.47-.92-5.9-3.51-19.95-36.01-40.03-71.96-60.13-107.9-.75-1.34-1.06-3.09-3.1-4.04v4.52c0,52.58-.05,105.17,.09,157.75,.01,3.89-.84,5.08-4.88,4.92-8.68-.35-17.39-.3-26.08-.01-3.69,.12-4.72-.78-4.7-4.59,.16-37.2,.1-74.39,.1-111.59,0-33.16,.05-66.33-.07-99.49-.01-3.4,.7-4.55,4.35-4.47,11.69,.26,23.39,.21,35.08,.02,3.1-.05,4.73,.92,6.24,3.65,23.42,42.45,46.97,84.83,70.49,127.22,.43,.78,.87,1.56,1.71,3.06Z"/>
  <path class="cls-1" d="M1117.97,83.26c0-5.67,.13-11.14-.06-16.59-.09-2.57,.78-3.27,3.29-3.24,8.99,.13,17.99,.21,26.97-.03,3.21-.09,3.55,1.17,3.54,3.84-.08,27.92-.05,55.85-.05,83.77,0,24.04-.08,48.08,.09,72.12,.02,3.4-.86,4.24-4.2,4.14-8.68-.25-17.38-.19-26.07-.03-2.73,.05-3.67-.69-3.58-3.5,.2-5.94,.06-11.88,.06-17.63-1.05-.78-1.32-.02-1.62,.38-24.44,32.89-80.38,33.47-107.78-1.31-15.39-19.53-20.59-42.08-19.3-66.35,1.14-21.46,7.76-40.92,22.74-56.97,24.86-26.64,69.49-30.23,96.22-7.7,3.26,2.75,6.26,5.83,9.75,9.1Zm-.59,62.3c0-7.31-.02-14.63,.02-21.94,0-1.66-.21-3.21-.86-4.77-12.41-29.97-54.97-38.29-77.77-15.11-10.72,10.89-14.17,24.65-14.5,39.3-.36,15.7,2.3,30.76,13.25,42.96,20.59,22.93,61.75,17.18,77.18-10.58,1.85-3.33,2.9-6.7,2.75-10.61-.25-6.41-.07-12.83-.07-19.25Z"/>
  <path class="cls-1" d="M784.95,158.07c-18.43,0-36.87,0-55.3,0q-5.43,0-4.2,5.04c5.99,24.57,24.14,38.5,49.48,38.2,17.11-.21,32.44-5.07,45.14-16.84,2.15-1.99,3.17-1.65,4.82,.46,4.7,6,9.48,11.95,14.49,17.69,2,2.29,1.62,3.42-.54,5.22-21.85,18.27-47.21,25.19-75.24,22.8-29.54-2.52-51.84-16.55-65.19-43.23-17.06-34.08-10.33-80.08,14.95-105.58,29.98-30.24,83.26-30.01,110.45,.56,11.82,13.28,17.52,29.28,20.14,46.55,1.28,8.44,1.28,16.95,1.46,25.46,.06,2.99-.88,3.76-3.81,3.74-18.88-.12-37.77-.06-56.65-.06Zm-17.36-25.91c13.33,0,26.66-.04,39.99,.04,2.34,.01,3.53-.29,3.21-3.13-2.86-25.11-20.11-43.79-49.97-38.93-18.7,3.04-33.94,20.53-35.88,39.38-.32,3.15,1.38,2.63,3.11,2.63,13.18,.01,26.36,0,39.54,0Z"/>
  <path class="cls-1" d="M888.49,140.83c0-16.47-.16-30.21,.1-43.94,.07-3.88-1.15-4.69-4.78-4.57-8.23,.28-16.49-.04-24.72,.16-2.82,.07-3.53-.76-3.45-3.5,.2-7.31,.24-14.64-.01-21.95-.11-3.12,1.04-3.65,3.82-3.6,8.24,.16,16.49-.15,24.73,.15,3.71,.13,4.45-1.16,4.4-4.55-.18-13.29,.03-26.58-.15-39.87-.04-3.19,.94-3.99,4.04-3.92,8.84,.2,17.69,.2,26.52,0,3.09-.07,4.08,.72,4.03,3.93-.18,13.14,.06,26.28-.16,39.42-.06,3.74,.6,5.11,4.8,5.02,13.78-.32,27.58-.03,41.36-.19,2.96-.03,3.77,.79,3.69,3.7-.21,7.31-.22,14.64,0,21.95,.09,2.87-.85,3.43-3.53,3.4-14.09-.13-28.18,.02-42.26-.13-3.02-.03-4.09,.58-4.06,3.85,.16,24.04,.12,48.08,.12,72.13,0,5.7,.51,11.34,2.36,16.77,3.12,9.2,9.95,14.19,20.32,14.84,8.1,.51,16.19,.15,24.17-1.35,2.16-.41,2.9-.17,2.86,2.19-.11,7.91-.1,15.83,0,23.74,.02,1.87-.69,2.66-2.4,3.06-15.67,3.68-31.42,4.92-47.09,.5-20.31-5.73-30.02-20.55-33.25-40.31-2.69-16.46-.97-33.09-1.46-46.91Z"/>
</svg>