<?xml version="1.0" encoding="UTF-8"?>
<svg id="Capa_1" data-name="Capa 1" xmlns="http://www.w3.org/2000/svg" viewBox="0 0 875.61 292.04">
  <defs>
    <style>
      .cls-1 {
        fill: #fff;
      }
    </style>
  </defs>
  <path class="cls-1" d="M398.41,154.62v57.83h13.17v-40.55c3.74,12.99,7,24.51,10.39,35.99,.49,1.67,1.21,3.91,2.51,4.6,6.18,3.29,14.19-.51,16.02-7.12,2.81-10.17,5.75-20.3,8.63-30.45,.36,.09,.72,.18,1.09,.27v37.13h13.78v-57.75c-4.5,0-8.86,.46-13.08-.11-6.3-.85-8.6,1.96-9.99,7.73-2.61,10.82-6,21.46-9.48,33.59-1.36-3.72-2.31-5.96-3-8.29-2.82-9.52-5.46-19.1-8.44-28.58-.52-1.64-2.26-4-3.59-4.1-5.92-.45-11.9-.19-18.03-.19h.02Zm432.73,76.86c12.7,3.05,21.45-.81,26.05-12.25,6.33-15.73,12.04-31.72,17.96-47.61,.39-1.05,.29-2.29,.46-3.91-2.46,0-4.57,.32-6.55-.06-6.32-1.21-9.37,1.43-10.77,7.56-1.55,6.74-3.9,13.3-5.89,19.93-3.42-7.78-5.56-15.49-8.13-23.06-.58-1.71-2.54-3.93-4.11-4.15-4.14-.58-8.41-.2-13.44-.2,5.72,14.28,11.08,27.47,16.28,40.73,2.42,6.17-.82,11.12-7.42,11.67-1.37,.12-2.76,.02-4.44,.02v11.33h0Zm-153.59-63.21h-15.4c0,5.7,.17,10.85-.05,15.99-.18,4.3-.25,8.75-1.5,12.79-.58,1.87-3.9,4.12-5.84,4-1.79-.12-3.95-2.92-4.9-5.02-.87-1.91-.39-4.46-.4-6.73-.03-6.97-.01-13.93-.01-21.15h-15.38c0,11.33-.53,22.26,.18,33.11,.5,7.71,6.13,12.58,13.85,12.17,5.42-.29,10.73-2.61,16.24-4.06,2.26,6.5,8.06,2.77,13.21,3.08v-44.18h0Zm63.28,4.39c-2.59-7.96-8.45-4.2-13.48-4.59v44.23h15.23c0-3.42-.02-6.29,0-9.16,.04-4.75-.29-9.55,.29-14.24,.36-2.89,1.41-6.34,3.4-8.24,3.73-3.57,8.66-.59,8.89,5.46,.33,8.62,.08,17.26,.08,26.31h15.25c.28-.9,.61-1.47,.62-2.04,.05-8.89,.2-17.77,.04-26.66-.24-12.87-9.57-19.67-21.86-15.83-2.84,.89-5.31,2.95-8.47,4.76h0Zm-195.17,47.77c0,3.13-.29,5.84,.13,8.43,.2,1.23,1.62,3.04,2.73,3.23,11.34,1.96,22.41-1.53,22.29-16.51-.11-14.26,0-28.52-.04-42.79,0-1.57-.35-3.15-.54-4.66h-15.06c0,14.43,.02,28.44,0,42.45-.02,8.69-.51,9.2-9.5,9.83v.02Zm174.81-52.36c-8.3-3.03-12.94,2.1-17.82,6.48-3.26-7.72-3.83-7.95-13.95-6.04v43.91h15.43c0-7.41-.13-14.39,.04-21.37,.15-6.32,2.8-8.95,9.07-9.41,1.78-.13,3.59-.02,5.72-.02,.53-4.81,1.01-9.06,1.5-13.55h.01Zm-229.23,44.45v-44.33h-14.5v44.33h14.5Zm-7.57-49.31c5.03,.05,8.77-1.44,8.7-6.8-.07-5.26-3.81-6.87-8.46-6.82-4.39,.05-7.8,1.54-7.94,6.61-.15,5.46,3.35,7.01,7.71,7.01h-.01Zm79.53,.01c4.7-.07,8.16-1.56,7.94-7.07-.22-5.55-4.07-6.6-8.55-6.54-4.45,.05-7.64,1.79-7.65,6.83,0,5.54,3.69,6.75,8.26,6.78Z"/>
  <path class="cls-1" d="M251.65,278.4c4.27,5.36,12.05,6.69,18.72,2.93,4.64-2.62,8.95-5.91,13.11-9.28,16.07-13.03,29.08-13.03,45.03,.29,5.98,5,11.22,11.1,19.95,11.62,1.19,.07,2.22,2.93,3.32,4.5-1.89,1.27-4.25,3.98-5.59,3.54-5.77-1.87-11.47-4.27-16.76-7.24-3.54-1.99-6.23-5.42-9.49-7.96-9.63-7.49-19.41-7.27-28.81,.44-3.2,2.63-6.36,5.3-9.67,7.79-13.04,9.81-28.66,9.09-40.88-1.73-2.63-2.33-5.34-4.59-8.15-6.7-9.51-7.16-18.95-6.99-28.32,.48-2.75,2.19-5.34,4.58-8.07,6.79-12.52,10.09-26.43,10.42-39.3,.87-2.82-2.09-5.42-4.49-8.07-6.79-9.36-8.13-18.02-8.55-28.05-1.38-5.2,3.71-10.21,7.78-15.73,10.93-11.96,6.83-23.56,4.37-34.42-2.81-5.85-3.87-11.4-8.25-16.81-12.72-4.74-3.92-9.2-3.85-14.09-.5-6.31,4.32-12.57,8.76-19.15,12.64-4.56,2.68-9.52,4.88-14.55,6.48-1.51,.48-3.89-1.78-5.87-2.79,1.32-1.74,2.29-4.04,4.02-5.13,9.05-5.7,18.37-10.98,27.38-16.74,.92-.59,1.07-3.69,.45-5.14-1.77-4.17-4.18-8.06-6.22-12.11-2.83-5.6-1.67-8.23,4.52-8.86,9.87-1,19.79-1.62,29.7-2.17,24.57-1.38,49.17-2.43,73.73-4.02,21.46-1.38,42.87-3.44,64.32-4.95,16.5-1.16,33.04-1.85,49.56-2.88,23.32-1.46,46.63-3.04,69.95-4.56,2.27-.15,4.64-.63,6.8-.18,2.35,.49,4.52,1.88,6.77,2.87-1.19,2.21-1.85,5.06-3.65,6.52-21.93,17.75-45.44,33.08-70.97,45.22-1.61,.76-3.08,1.8-4.69,2.76l-.02-.03Zm58.24-45.61c-.28-.7-.56-1.4-.84-2.09-90.82,5.87-181.63,11.74-273.58,17.68,3.31,4.82,2.77,10.43,9.31,11.67,5.08,.96,10.26,2.77,14.69,5.39,5.83,3.45,10.8,8.31,16.44,12.13,10.34,7.01,19.13,6.76,29.25-.43,3.87-2.75,7.59-5.73,11.47-8.46,12.15-8.55,23-8.4,34.79,.48,3.96,2.99,7.76,6.19,11.74,9.16,8.62,6.42,17.83,6.18,26.2-.54,3.22-2.59,6.49-5.13,9.72-7.72,12.45-10.02,25.94-10.38,38.55-.55,3.05,2.38,5.47,3.04,8.86,1.16,14.98-8.33,30.15-16.32,44.98-24.9,6.48-3.75,12.31-8.61,18.44-12.97h-.02Z"/>
  <path class="cls-1" d="M226.81,205.75c.26,9.66-1.09,10.64-8.57,7.95-25.61-9.22-51.72-15.62-79.23-15.13-27.94,.5-53.58,8.81-77.9,21.97-2.18,1.18-4.16,2.95-6.47,3.58-2.06,.56-4.44-.07-6.68-.18,.3-2.17-.19-5.05,1.02-6.41,9.89-11.15,17.16-23.88,22.15-37.75,11.1-30.87,15.52-62.54,8.69-95.04-5.6-26.64-15.8-51.62-28.87-75.45-.3-.54-.79-1.08-.85-1.65-.22-2.46-.31-4.93-.45-7.4,2.54,.05,5.49-.73,7.54,.3,10.88,5.45,21.86,10.82,32.21,17.2,38.35,23.66,70.68,53.82,95.91,91.28,18.97,28.16,33.22,58.51,40.83,91.76,.5,2.2,.61,4.49,.67,4.96h0Zm-157.13-1.23c1.24,.4,1.68,.71,1.98,.61,1.37-.46,2.71-.99,4.03-1.56,17.78-7.71,36.48-12.34,55.67-13.71,26.71-1.9,52.63,3.51,78.09,11.31,2.16,.66,4.45,.88,8.05,1.56-13.88-56.15-42.79-101.53-83.28-139.81-20.46-19.34-43.18-35.73-69.3-47.62,31.65,62.63,37.51,125.5,4.75,189.22h0Z"/>
  <path class="cls-1" d="M147.84,33.54c8.22,3.8,16.67,6.75,24.12,11.32,25.65,15.72,46.98,36.53,66.66,59.01,25.67,29.32,42.47,63.79,56.24,99.86,.99,2.59,.3,5.81,.39,8.74-2.86-.2-5.97,.25-8.55-.71-10.97-4.1-21.87-7.59-33.81-4.44-3.86,1.02-6.24-.33-7.61-4.86-12.67-41.96-29.71-81.89-55.98-117.36-12.06-16.28-27.22-29.35-43.46-41.31-1.75-1.29-2.76-4.21-3.06-6.51-.11-.86,2.77-2.12,5.07-3.75h-.01Zm135.53,165.54c-19.19-51.76-49.87-95.67-94.08-129.81,.2,1.46,.75,2.7,1.59,3.7,15.06,17.8,26.89,37.68,36.27,58.88,8.75,19.78,16.22,40.13,24.36,60.19,.78,1.93,2.12,4.98,3.45,5.12,9.28,.98,18.63,1.34,28.41,1.92Z"/>
  <path class="cls-1" d="M398.41,154.62c6.13,0,12.11-.25,18.03,.19,1.32,.1,3.07,2.46,3.59,4.1,2.98,9.47,5.61,19.05,8.44,28.58,.69,2.32,1.64,4.57,3,8.29,3.47-12.13,6.87-22.76,9.48-33.59,1.39-5.77,3.69-8.58,9.99-7.73,4.22,.57,8.57,.11,13.08,.11v57.75h-13.78v-37.13c-.36-.09-.72-.18-1.09-.27-2.88,10.15-5.83,20.28-8.63,30.45-1.82,6.61-9.83,10.4-16.02,7.12-1.3-.69-2.01-2.93-2.51-4.6-3.39-11.48-6.66-22.99-10.39-35.99v40.55h-13.17v-57.83h-.02Z"/>
  <path class="cls-1" d="M543.94,212.44c-5.5,.17-11.41,2.81-14.51-4.83-1.11,.91-1.88,1.53-2.63,2.16-8.24,7.01-19.35,4.55-23.39-5.48-3.61-8.97-3.51-18.18-.24-27.27,3.09-8.6,14.41-14.55,25.53-5.02v-20.73h15.24v61.17Zm-13.75-21.14c-.14-2.05-.14-3.5-.36-4.91-.58-3.84-2.52-7.31-6.63-6.3-2.46,.6-5.35,3.7-6.03,6.22-.91,3.34-.49,7.42,.62,10.76,.63,1.88,3.85,4.06,5.84,3.99,1.97-.06,4.33-2.45,5.65-4.4,1.02-1.52,.71-3.94,.91-5.37h0Z"/>
  <path class="cls-1" d="M831.14,231.48v-11.33c1.68,0,3.07,.1,4.44-.02,6.6-.56,9.84-5.5,7.42-11.67-5.2-13.25-10.56-26.44-16.28-40.73,5.03,0,9.3-.39,13.44,.2,1.57,.22,3.52,2.44,4.11,4.15,2.57,7.57,4.71,15.28,8.13,23.06,2-6.64,4.35-13.19,5.89-19.93,1.41-6.13,4.46-8.77,10.77-7.56,1.98,.38,4.09,.06,6.55,.06-.18,1.62-.07,2.85-.46,3.91-5.92,15.9-11.63,31.88-17.96,47.61-4.61,11.44-13.35,15.3-26.05,12.25h0Z"/>
  <path class="cls-1" d="M677.55,168.27v44.18c-5.14-.32-10.95,3.41-13.21-3.08-5.51,1.45-10.82,3.77-16.24,4.06-7.71,.41-13.34-4.46-13.85-12.17-.71-10.85-.18-21.78-.18-33.11h15.38c0,7.21-.02,14.18,.01,21.15,.01,2.27-.47,4.82,.4,6.73,.95,2.1,3.11,4.9,4.9,5.02,1.94,.13,5.26-2.12,5.84-4,1.24-4.04,1.31-8.49,1.5-12.79,.22-5.13,.05-10.29,.05-15.99h15.4Z"/>
  <path class="cls-1" d="M740.83,172.66c3.15-1.81,5.63-3.87,8.47-4.76,12.29-3.84,21.62,2.96,21.86,15.83,.16,8.88,0,17.77-.04,26.66,0,.57-.34,1.14-.62,2.04h-15.25c0-9.05,.24-17.69-.08-26.31-.23-6.06-5.16-9.03-8.89-5.46-1.99,1.9-3.04,5.35-3.4,8.24-.58,4.69-.25,9.49-.29,14.24-.02,2.87,0,5.73,0,9.16h-15.23v-44.23c5.03,.38,10.89-3.37,13.48,4.59h0Z"/>
  <path class="cls-1" d="M822.9,194.63h-26.88c1.77,8.89,7.53,10.11,23.28,5.55,3,9.14,1.79,11.6-7.34,12.88-4.66,.65-9.55,.76-14.21,.14-9.55-1.26-15.69-7.27-17.41-16.08-2.33-11.91,1.16-22.24,9.14-27.05,7.54-4.55,20.43-3.93,27.08,1.31,5.47,4.31,7.45,11.12,6.34,23.26h0Zm-26.87-10.14h12.66c-.18-4.32-2.06-6.72-5.92-6.82-4.11-.1-6.2,2.36-6.74,6.82Z"/>
  <path class="cls-1" d="M624.72,191.21c-.25,14.57-8.57,22.7-23,22.47-13.89-.22-22.24-9.52-21.92-24.43,.3-13.95,8.89-22.34,22.79-22.23,13.94,.11,22.39,9.35,22.13,24.19h0Zm-15.66-.87c0-7.69-2.11-11.41-6.54-11.54-4.66-.13-6.67,3.21-6.74,11.17,0,.21-.02,.42,0,.62,.52,4.77-.6,10.66,6.39,11.61,4.39,.6,6.89-4,6.89-11.86h0Z"/>
  <path class="cls-1" d="M545.66,220.42c9-.63,9.49-1.14,9.5-9.83,.03-14.01,0-28.02,0-42.45h15.06c.18,1.51,.53,3.09,.54,4.66,.04,14.26-.07,28.52,.04,42.79,.12,14.97-10.96,18.47-22.29,16.51-1.1-.19-2.53-2-2.73-3.23-.42-2.6-.13-5.31-.13-8.43v-.02Z"/>
  <path class="cls-1" d="M720.48,168.07c-.5,4.48-.97,8.74-1.5,13.55-2.13,0-3.94-.11-5.72,.02-6.27,.47-8.92,3.1-9.07,9.41-.16,6.97-.04,13.95-.04,21.37h-15.43v-43.91c10.12-1.92,10.69-1.68,13.95,6.04,4.88-4.37,9.52-9.51,17.82-6.48h-.01Z"/>
  <path class="cls-1" d="M491.26,212.51h-14.5v-44.33h14.5v44.33Z"/>
  <path class="cls-1" d="M483.68,163.2c-4.36,0-7.86-1.54-7.71-7.01,.14-5.07,3.56-6.57,7.94-6.61,4.65-.05,8.38,1.56,8.46,6.82,.08,5.36-3.67,6.85-8.7,6.8h.01Z"/>
  <path class="cls-1" d="M563.21,163.21c-4.57-.04-8.27-1.25-8.26-6.79,0-5.04,3.2-6.78,7.65-6.83,4.48-.05,8.33,.99,8.55,6.54,.22,5.51-3.24,7.01-7.93,7.08h-.01Z"/>
</svg>