<?xml version="1.0" encoding="UTF-8"?>
<svg id="Capa_1" data-name="Capa 1" xmlns="http://www.w3.org/2000/svg" viewBox="0 0 985.44 185.54">
  <defs>
    <style>
      .cls-1 {
        fill: #fff;
      }
    </style>
  </defs>
  <path class="cls-1" d="M985.25,148.48v-20.53h-30.69V23.48h30.87V3.28h-89.26V23.69h30.93v104.58h-30.93v20.22h89.08Zm-257.46-.13v-4.4c0-16.75,.06-33.51-.03-50.26-.04-7.28-.02-14.59-.6-21.85-1.39-17.09-11.97-29.42-28.35-32.22-6.18-1.06-12.81-.72-19.08,.11-9.97,1.32-17.67,6.51-22.17,15.82-.32,.65-.93,1.16-2.08,2.54v-16.57h-24.2v106.87h25.82v-4.35c0-20.46-.15-40.92,.11-61.38,.17-13.66,8.89-21.9,22.42-21.98,13.47-.08,21.51,7.8,22.1,21.67,.07,1.53,.05,3.07,.05,4.61v61.38h26.02Z"/>
  <path class="cls-1" d="M0,72.2c1.6-4.82,2.69-9.86,4.87-14.4,6.08-12.68,16.18-20.83,29.72-24.86,1.51-.45,3.21-2.02,3.82-3.49C51.18-.99,89.47-9.78,113.87,12.31c2.48,2.26,4.62,3.02,8.07,2.58,31.89-4.07,58.75,26.22,50.88,57.31-.71,2.78-.25,4.6,1.49,6.86,19.96,26.01,7.43,63.87-24.15,73-2.57,.75-3.9,1.95-4.94,4.49-12.53,30.38-51.9,38.74-75.77,16.12-1.98-1.87-3.75-2.46-6.41-2.15-33.91,3.85-59.54-25.22-51.63-58.43,.27-1.12,.36-2.79-.26-3.53-6.2-7.22-9.26-15.77-11.13-24.87v-11.52H0Zm35.35-26.37c-1.77,.76-3.06,1.23-4.26,1.85-23.76,12.14-25.42,45.38-2.71,59.7,12.13,7.65,24.78,14.44,37.26,21.52,.91,.52,2.54,.62,3.43,.15,4.73-2.51,9.32-5.27,14.3-8.13-1.52-.93-2.69-1.68-3.9-2.38-13.22-7.59-26.42-15.2-39.69-22.72-3.12-1.77-4.54-4.1-4.47-7.74,.16-9.08,.06-18.16,.05-27.25,0,0,0-15.01,0-15.01Zm113.65,94.19c13.55-5.98,21.25-15.63,22.52-29.48,1.29-14.05-4.47-25.31-16.53-32.73-11.87-7.31-24.12-14.02-36.25-20.9-.97-.55-2.63-.99-3.47-.54-4.84,2.54-9.52,5.36-14.61,8.3,1.58,.96,2.64,1.62,3.73,2.25,12.74,7.38,25.36,14.96,38.28,22,4.86,2.66,6.69,5.94,6.41,11.32-.36,7.14-.09,14.31-.09,21.46v18.34h0ZM63.23,99.4v-4.84c0-14.71,.15-29.42-.06-44.13-.07-4.7,1.67-7.54,5.76-9.79,10.78-5.93,21.37-12.17,32.02-18.31,1.05-.61,2.06-1.3,3.17-2.01-.44-.52-.64-.86-.94-1.07-10.63-7.59-22.17-9.27-34.24-4.32-12.06,4.95-20.04,14.13-21.03,27.09-1.18,15.4-.57,30.92-.63,46.39,0,.93,.77,2.24,1.59,2.72,4.47,2.72,9.06,5.25,14.34,8.26h0Zm49.1,14.8c-1.96,1.09-3.18,1.76-4.39,2.46-13.1,7.51-26.24,14.96-39.28,22.57-3.38,1.98-6.27,1.99-9.65,0-10.8-6.36-21.73-12.53-32.62-18.75-1.17-.67-2.38-1.25-3.89-2.04-1.65,14.27,2.73,25.61,13.97,33.7,11.62,8.36,24.33,9.24,36.97,2.51,12.42-6.61,24.49-13.89,36.65-20.98,1.01-.59,2.09-2.04,2.14-3.12,.22-5.2,.1-10.41,.1-16.34h0Zm49.24-46.85c1.48-14.74-2.94-26.22-14.48-34.26-11.63-8.1-24.25-8.77-36.74-2.1-12.32,6.57-24.28,13.8-36.37,20.79-.83,.48-2.04,1.31-2.05,2.01-.17,5.64-.1,11.29-.1,17.47,1.94-1.06,3.17-1.71,4.39-2.41,12.78-7.33,25.62-14.55,38.28-22.09,4.01-2.39,7.3-2.52,11.35-.06,10.39,6.34,21.01,12.3,31.54,18.4,1.18,.68,2.38,1.29,4.17,2.26h0Zm-82.01,98.02c1.25,.95,2.12,1.7,3.09,2.3,11.23,6.96,22.96,7.85,34.75,1.89,11.75-5.94,18.55-15.75,19.02-28.98,.51-14.3,.2-28.62,.19-42.94,0-.94-.21-2.36-.82-2.74-4.72-2.93-9.58-5.67-15.01-8.82v5.06c0,14.83-.08,29.65,.05,44.49,.04,4.16-1.4,6.92-5.13,8.98-10.3,5.71-20.45,11.68-30.67,17.55-1.74,1-3.46,2.05-5.46,3.23v-.02Zm-7.25-72.63c-3.3,9.35,2.31,13.16,9.42,17.64,7.65,4.83,13.13,4.54,20.81-.03,7.34-4.36,10.21-8.64,10.22-17.38,0-8.96-2.69-13.63-10.5-18.03-7.64-4.31-13.04-4.51-20.55,.12-7.19,4.43-12.72,8.32-9.4,17.67h0Z"/>
  <path class="cls-1" d="M370.23,78.19c-.86,8.06-.98,18.41-3.23,28.29-5.48,24.16-23.54,40.17-48.22,43.95-12.43,1.9-24.82,1.68-36.97-1.92-20.93-6.2-34.77-19.87-39.67-40.94-4.79-20.6-4.71-41.77-.23-62.41,5.43-25.03,24.89-41.28,50.43-44.34,11.21-1.34,22.32-1.16,33.21,1.88,24.38,6.8,38.41,23.13,42.58,47.72,1.42,8.39,1.34,17.05,2.09,27.79h0Zm-104.43-2.4c.26,0,.51,.02,.76,.02,0,6.39-.48,12.83,.1,19.17,1.31,14.37,6.95,26.49,21.4,31.85,5.83,2.17,12.52,2.87,18.81,2.84,18.32-.1,31.96-10.87,34.18-28.93,1.83-14.86,1.65-30.11,.87-45.12-1.02-19.62-12.84-31.53-32.44-33.69-20.59-2.26-38.57,6.9-42.18,30.53-1.18,7.66-1.02,15.54-1.48,23.31h0Z"/>
  <path class="cls-1" d="M418.07,135.41v49.91h-25.77V41.59h24.28v15.66c.91-.86,1.39-1.16,1.65-1.59,8.35-13.4,21.24-17.75,36.04-16.79,24.93,1.61,41.39,18.93,41.76,43.9,.18,11.84,.7,24.04-1.73,35.49-6.81,32.18-42.97,39.29-63.25,27.98-4.77-2.66-8.56-7.06-12.99-10.82v-.02h0Zm52.52-40.18c-.19,0-.37,0-.56,0,0-4.21,.29-8.46-.06-12.64-1.11-13.44-10.24-22.58-23.1-23.41-14.18-.92-25.62,6.47-27.6,19.96-1.51,10.35-1.52,21.24-.09,31.6,1.8,12.99,12.45,20.39,25.56,20.06,13.44-.34,22.72-7.99,24.91-21.03,.8-4.76,.64-9.68,.93-14.53Z"/>
  <path class="cls-1" d="M879.8,148.62c-8.31,0-16.36,.09-24.4-.12-.87-.02-2.09-1.62-2.47-2.71-2.85-8.48-5.58-16.99-8.22-25.54-.61-1.99-1.41-2.88-3.7-2.86-18.62,.11-37.23,.06-55.85,.07-.51,0-1,.11-1.74,.21-2.97,9.2-6.06,18.4-8.88,27.68-.76,2.51-1.82,3.45-4.52,3.37-7.42-.2-14.84-.07-22.79-.07,.56-1.71,.96-2.99,1.4-4.25,16.52-45.93,33.07-91.85,49.52-137.79,.97-2.72,2.25-3.7,5.2-3.61,7.18,.23,14.38-.05,21.56,.15,1.23,.04,3.14,1.2,3.54,2.28,17.14,47.2,34.15,94.44,51.17,141.68,.09,.23,.06,.51,.16,1.52Zm-65.77-124.13l-.84,.08c-7.67,23.95-15.36,47.91-23.11,72.08h46.88c-7.72-24.28-15.33-48.21-22.94-72.15Z"/>
  <path class="cls-1" d="M727.79,148.37h-26.02v-61.38c0-1.54,.02-3.07-.05-4.61-.59-13.88-8.63-21.76-22.1-21.67-13.53,.08-22.25,8.32-22.42,21.98-.26,20.46-.09,40.92-.11,61.38v4.35h-25.82V41.55h24.2v16.57c1.16-1.39,1.77-1.89,2.08-2.54,4.5-9.31,12.2-14.5,22.17-15.82,6.27-.83,12.89-1.17,19.08-.11,16.38,2.8,26.97,15.14,28.35,32.22,.58,7.25,.56,14.55,.6,21.85,.08,16.75,.03,33.51,.03,50.26v4.4h0Z"/>
  <path class="cls-1" d="M611.63,103.54h-71.78c-2.83,23.37,14,33.1,32.16,28.89,7.52-1.75,11.36-4.31,20.85-13.32,4.49,2.55,9.04,5.13,13.58,7.72,.65,.37,1.25,.82,2.11,1.39-6.02,10.32-14.54,17.25-25.86,20.49-12.38,3.54-24.87,3.53-37.17-.29-17-5.27-27.45-16.83-30.11-34.33-2.06-13.53-2.35-27.32,.73-40.8,4.42-19.28,19.41-32.34,39.28-33.95,7.32-.59,14.97-.44,22.14,.99,19.48,3.88,32.53,19.06,33.98,38.91,.57,7.86,.1,15.8,.1,24.28h0Zm-23.26-17.65c.16-10.74-.92-20.78-11.02-26.43-9.39-5.27-19.43-5.19-28.41,1.01-8.77,6.06-9.53,15.6-9.56,25.42h48.99Z"/>
</svg>