<?xml version="1.0" encoding="UTF-8"?>
<svg id="Capa_1" data-name="Capa 1" xmlns="http://www.w3.org/2000/svg" viewBox="0 0 923.08 233.56">
  <defs>
    <style>
      .cls-1 {
        fill: #fff;
      }
    </style>
  </defs>
  <path class="cls-1" d="M295.3,183.91l11.53-26.78c12.46,9.3,29.01,14.13,45.37,14.13,12.09,0,19.71-4.65,19.71-11.72-.19-19.71-72.34-4.28-72.89-53.74-.19-25.1,22.13-44.44,53.74-44.44,18.78,0,37.56,4.65,50.95,15.25l-10.79,27.34c-12.27-7.81-27.52-13.39-42.03-13.39-9.86,0-16.36,4.65-16.36,10.6,.19,19.34,72.89,8.74,73.64,55.97,0,25.66-21.76,43.7-53,43.7-22.87,0-43.89-5.39-59.88-16.92m442.39-36.45c-5.76,10.04-16.55,16.92-29.01,16.92-18.41,0-33.29-14.88-33.29-33.29s14.88-33.29,33.29-33.29c12.46,0,23.24,6.88,29.01,16.92l31.8-17.67c-11.9-21.2-34.77-35.7-60.81-35.7-38.49,0-69.73,31.24-69.73,69.73s31.24,69.73,69.73,69.73c26.22,0,48.91-14.32,60.81-35.7l-31.8-17.67ZM424.16,3.53h39.79V198.23h-39.79V3.53Zm400.73,194.69v-58.39l47.23,58.39h50.95l-60.06-69.36,55.6-64.71h-48.72l-45,53.74V3.53h-39.79V198.23h39.79Zm-242.67-50.39c-5.76,9.48-17.67,16.55-31.05,16.55-18.41,0-33.29-14.88-33.29-33.29s14.88-33.29,33.29-33.29c13.39,0,25.29,7.44,31.05,17.11v32.91Zm0-83.68v15.81c-6.51-10.97-22.69-18.6-39.61-18.6-34.96,0-62.48,30.87-62.48,69.55s27.52,69.92,62.48,69.92c16.92,0,33.1-7.62,39.61-18.6v15.81h39.79V64.15h-39.79ZM49.28,147.65c0,13.57-10.97,24.55-24.55,24.55S.19,161.22,.19,147.65s10.97-24.55,24.55-24.55h24.55v24.55Zm12.27,0c0-13.57,10.97-24.55,24.55-24.55s24.55,10.97,24.55,24.55v61.36c0,13.57-10.97,24.55-24.55,24.55s-24.55-10.97-24.55-24.55v-61.36Zm24.55-98.56c-13.57,0-24.55-10.97-24.55-24.55S72.52,0,86.1,0s24.55,10.97,24.55,24.55v24.55h-24.55Zm0,12.46c13.57,0,24.55,10.97,24.55,24.55s-10.97,24.55-24.55,24.55H24.55c-13.57,0-24.55-10.97-24.55-24.55s10.97-24.55,24.55-24.55h61.55Zm98.37,24.55c0-13.57,10.97-24.55,24.55-24.55s24.55,10.97,24.55,24.55-10.97,24.55-24.55,24.55h-24.55v-24.55Zm-12.27,0c0,13.57-10.97,24.55-24.55,24.55s-24.55-10.97-24.55-24.55V24.55c0-13.57,10.97-24.55,24.55-24.55s24.55,10.97,24.55,24.55v61.55Zm-24.55,98.37c13.57,0,24.55,10.97,24.55,24.55s-10.97,24.55-24.55,24.55-24.55-10.97-24.55-24.55v-24.55h24.55Zm0-12.27c-13.57,0-24.55-10.97-24.55-24.55s10.97-24.55,24.55-24.55h61.55c13.57,0,24.55,10.97,24.55,24.55s-10.97,24.55-24.55,24.55h-61.55Z"/>
</svg>