<?xml version="1.0" encoding="UTF-8"?>
<svg id="Capa_1" data-name="Capa 1" xmlns="http://www.w3.org/2000/svg" viewBox="0 0 807.4 182.58">
  <defs>
    <style>
      .cls-1 {
        fill: #fff;
      }
    </style>
  </defs>
  <path class="cls-1" d="M709.69,85.75c11.07-11.97,22.28-23.83,33.16-35.98,4.76-5.31,10.21-7.31,17.29-7.09,12.97,.42,25.96,.12,40.54,.12-7.17,7.21-13.27,13.47-19.51,19.6-10.09,9.9-20.17,19.83-30.48,29.49-3.66,3.43-1.93,5.89,.21,8.94,17.5,24.92,34.92,49.89,52.36,74.86,1.21,1.73,2.29,3.56,4.14,6.46-15.74,0-30.39,.16-45.03-.21-1.7-.04-3.68-2.73-4.95-4.6-10.99-16.19-21.82-32.49-32.75-48.73-4.34-6.45-4.93-6.41-10.81-1.26-5.07,4.44-7.56,9.75-7.39,16.62,.27,10.87-.08,21.76,.16,32.64,.09,4.26-1.3,5.78-5.59,5.69-10.22-.22-20.45-.29-30.66,.02-4.94,.15-6.41-1.71-6.35-6.45,.21-15.46,.11-30.92,.07-46.37-.12-40.27-.29-80.54-.41-120.81-.03-8.17,.23-8.25,8.46-8.13,9.13,.13,18.27,.26,27.39-.1,5.36-.21,7.19,1.5,7.13,7.01-.26,24.6-.13,49.2-.13,73.81,0,.78,.16,1.57,.25,2.35,.97,.71,1.95,1.42,2.92,2.13Z"/>
  <path class="cls-1" d="M260.81,122.45c-8.74,4.96-13.73,11.79-13.86,21.55-.15,10.87-.07,21.75,.24,32.61,.13,4.6-1.51,6.06-6.05,5.93-10-.29-20.03-.39-30.02,.03-5.51,.23-6.78-2.29-6.68-6.96,.21-10.23,.45-20.46,.43-30.69-.09-45.29-.28-90.59-.41-135.88-.03-8.93,.02-8.94,9.06-8.94,8.7,0,17.41,.23,26.11-.08,5.32-.19,7.23,1.57,7.17,7.09-.25,24.17-.12,48.35-.1,72.52,0,1.41,.17,2.82,.34,5.53,9.42-9.09,18.81-16.61,26.25-25.71,10.87-13.29,23.61-19.3,40.78-16.83,7.42,1.07,15.12,.18,23.74,.18-1.5,2.07-2.3,3.49-3.39,4.62-13.94,14.35-27.76,28.81-42,42.86-3.89,3.84-4.39,6.46-1.18,10.97,17.41,24.46,34.55,49.11,51.77,73.71,1.44,2.05,2.78,4.17,4.82,7.24-15.3,0-29.37,.24-43.41-.24-2.36-.08-5.24-2.87-6.81-5.14-10.97-15.95-21.66-32.1-32.45-48.18-1.31-1.96-2.71-3.86-4.34-6.18Z"/>
  <path class="cls-1" d="M637.55,108.19c-.01,42.15-32.1,74.04-74.51,74.04-41.13,0-73.3-32.84-73.26-74.8,.03-40.36,32.86-72.86,73.73-73.23,41.74-.38,76.06,35.44,74.04,73.99Zm-38.09,.19c.06-20.29-15.57-35.94-35.88-35.94-19.5,0-35.67,16.19-35.72,35.74-.05,19.44,16.15,35.93,35.49,36.13,19.95,.21,36.05-15.81,36.11-35.93Z"/>
  <path class="cls-1" d="M494.93,1.05c-3.62,11.58-6.93,22.82-10.77,33.87-.61,1.75-3.59,3.69-5.55,3.77-8.9,.41-17.84,.45-26.75,.08-5.7-.24-7.48,1.69-7.44,7.47,.28,43.77,.25,87.54,.27,131.32,0,1.47-.43,2.93-.73,4.86-12.82,0-25.42,.17-38-.21-1.63-.05-3.57-2.78-4.6-4.68-.73-1.35-.16-3.41-.16-5.15,0-41.82-.12-83.63,.13-125.45,.04-6.25-1.71-8.42-8.06-8.19-11.69,.44-23.41,.13-35.48,.13V1.05h137.15Z"/>
  <path class="cls-1" d="M134.27,1.73c-3.53,11.19-6.95,22.6-10.86,33.83-.53,1.53-3.43,3.08-5.3,3.16-8.25,.34-16.53,.39-24.78,.06-5.07-.2-6.4,2.13-6.37,6.61,.24,39.6,.29,79.2,.66,118.8,.17,18.03,.43,18.02-17.61,18.02-5.87,0-11.78-.44-17.6,.11-6.87,.66-8.32-2.15-8.28-8.56,.26-42.22,0-84.44,.29-126.66,.04-6.49-1.38-8.84-8.23-8.4-9.96,.63-20,.01-29.99,.23-4.29,.09-6.37-.94-6.2-5.78C.32,24.05-.11,14.9,.29,5.78,.37,4.05,2.9,.98,4.31,.98c43.03-.15,86.07,0,129.1,.12,.16,0,.31,.22,.86,.64Z"/>
  <path class="cls-1" d="M186.61,120.55c0,18.05-.25,36.1,.14,54.14,.13,6.2-1.97,7.91-7.87,7.66-9.76-.42-19.55-.24-29.32-.06-4.19,.08-5.73-1.4-5.72-5.69,.06-37.18,.01-74.36-.18-111.54-.02-4.45,1.33-6.29,5.92-6.2,10.42,.2,20.86,.24,31.28-.02,4.76-.12,5.86,1.94,5.82,6.26-.16,18.48-.07,36.97-.07,55.45Z"/>
  <path class="cls-1" d="M164.89,43.89c-11.78-.13-21.38-10.14-21.14-22.03,.25-11.91,10.14-21.37,22.07-21.1,11.49,.27,20.79,9.98,20.79,21.71,0,11.84-9.85,21.54-21.72,21.41Z"/>
</svg>