<?xml version="1.0" encoding="UTF-8"?>
<svg id="Capa_1" data-name="Capa 1" xmlns="http://www.w3.org/2000/svg" viewBox="0 0 418.76 167.74">
  <defs>
    <style>
      .cls-1 {
        fill: #fff;
      }
    </style>
  </defs>
  <path class="cls-1" d="M418.76,159.69c-1.21-1.83-1.98-3.04-2.78-4.23-16.05-23.87-32.07-47.76-48.22-71.57-1.67-2.47-1.74-4.11-.05-6.61,16.24-23.9,32.33-47.91,48.45-71.9,.83-1.23,1.53-2.55,2.44-4.07-2.23-.26-3.81-.51-5.4-.62-13.58-.96-25.75,1.71-34.35,13.48-5.34,7.31-10.77,14.56-16.05,21.92-4.27,5.95-8.3,12.07-12.57,18.03-2.86,4-5.1,3.91-8.04-.08-.55-.75-1.05-1.54-1.6-2.29-9.26-12.86-18.33-25.86-27.83-38.53C302.93,.04,288.97-.46,273.82,1.31c1.16,1.81,1.98,3.15,2.86,4.45,16.05,23.87,32.06,47.76,48.21,71.56,1.69,2.48,1.63,4.08-.07,6.58-14.76,21.68-29.35,43.48-43.99,65.25-2.21,3.29-4.4,6.6-7,10.5,15.87,.99,30.46,.32,40.55-13.44,9.14-12.46,17.95-25.15,26.87-37.76,4.11-5.8,5.92-5.86,9.94-.16,.46,.65,.89,1.33,1.35,1.98,9,12.39,17.75,24.96,27.07,37.1,9.85,12.83,23.98,13.14,39.13,12.32h0ZM261.07,28.61c-6.86,3.71-13.37,7.48-20.09,10.8-5.83,2.89-8.77,6.9-8.73,13.76,.21,33.96,.1,67.94,.1,101.91v5.11c5.03-.54,9.57-.58,13.88-1.58,8.6-2,13.23-7.53,14.02-16.24,.46-5.03,.78-10.1,.79-15.14,.07-31.84,.03-63.68,.03-95.51v-3.11h0Zm-29.6,6.03c7.59-3.95,13.88-6.84,19.77-10.4,7.83-4.72,11.53-14.84,9-24.25-4.85,.89-9.88,1.44-14.69,2.79-5.3,1.49-9.31,5.19-10.6,10.53-1.62,6.73-2.29,13.69-3.49,21.32ZM0,9.11c16.42-2.2,31.13,5.42,35.23,21.42,6.85,26.77,13.82,53.51,20.74,80.27,.33,1.28,.7,2.55,1.33,4.85,2.13-8,4.04-15.08,5.91-22.17,4.54-17.21,8.96-34.46,13.69-51.62,1.19-4.32,3.13-8.47,5.11-12.51,4.96-10.12,14.16-13.55,24.45-13.57,10.3-.02,19.98,3.18,24.38,13.53,4.03,9.48,7.04,19.45,9.81,29.4,5.17,18.55,9.84,37.23,15.05,57.12,2.18-8.35,4.07-15.55,5.93-22.77,5.35-20.71,10.75-41.41,16.01-62.13,4.04-15.9,18.12-23.96,35.35-21.76-1.7,6.56-3.36,13.09-5.08,19.6-11.91,44.95-23.87,89.89-35.65,134.88-.86,3.29-2.19,4.45-5.37,3.99-5.23-.76-10.73-.68-15.67-2.32-8.35-2.77-13.72-9.14-16.06-17.58-4.42-16-8.57-32.07-12.73-48.14-3.79-14.67-7.42-29.37-11.12-44.06-.23-.9-.28-1.97-.82-2.64-1.14-1.43-2.8-3.88-3.8-3.67-1.63,.33-3.7,2.2-4.17,3.83-2.44,8.28-4.46,16.68-6.57,25.06-5.34,21.13-10.38,42.33-16.04,63.37-5.56,20.66-16.26,27.76-38.05,25.87-2.17-8.11-4.4-16.39-6.6-24.69C23.79,99.26,12.31,55.85,.82,12.45c-.16-.61-.54-1.16-.82-1.74v-1.6H0Z"/>
</svg>