<?xml version="1.0" encoding="UTF-8"?>
<svg id="Capa_1" data-name="Capa 1" xmlns="http://www.w3.org/2000/svg" viewBox="0 0 1109.56 277.46">
  <defs>
    <style>
      .cls-1 {
        fill: #fff;
      }
    </style>
  </defs>
  <path class="cls-1" d="M145.96,277.46c-.86-1.61-2.37-.81-3.56-.85-25.75-.83-51.49-1.72-77.12-4.53-7.5-.82-15.05-1.6-22.27-3.84-20.53-6.39-32.78-20.28-36.58-41.4C.46,193.7-.43,160.22,.15,126.69c.44-25.69,1.83-51.33,7.14-76.57C12.91,23.43,27.83,9.77,54.67,6.16,80.69,2.66,106.88,1.93,133.06,1.08c42.48-1.38,84.98-1.49,127.46,.02,27.95,.99,55.92,1.77,83.66,5.96,27.83,4.21,43.52,19.55,47.94,47.26,4.45,27.96,4.8,56.14,4.67,84.35-.14,28.07-1.31,56.06-5.48,83.88-2.31,15.43-7.94,28.89-20.74,38.71-9.97,7.65-21.7,9.6-33.69,10.9-27.26,2.95-54.63,3.79-82.01,4.5-1.05,.03-2.41-.66-3.14,.8h-105.77Zm13.37-197.41v117.42c34.53-19.7,68.47-39.06,102.92-58.71-34.46-19.66-68.41-39.03-102.92-58.71Z"/>
  <path class="cls-1" d="M888.03,233.86c-.82,1.68-1.61,3.38-2.46,5.05-8.52,16.82-25,25.07-43.47,21.6-12.1-2.27-18.75-10.38-22.47-21.46-4.24-12.6-5.31-25.69-5.63-38.83-.6-24.21-1.33-48.43,1.27-72.58,.82-7.64,2.39-15.13,4.98-22.4,9.04-25.47,37.73-32.63,58.07-14.5,2.85,2.54,5.2,5.51,7.37,8.57,1.45-.7,.88-1.7,.83-2.46-1.65-27.6-.66-55.22-1.03-82.83-.04-3.14,1.1-3.58,3.81-3.54,10.22,.13,20.45,.24,30.66-.05,3.6-.1,3.97,1.2,3.97,4.26-.08,74.29-.06,148.58-.06,222.87,0,5.76-.08,11.52,.04,17.28,.05,2.22-.5,3.11-2.93,3.06-8.14-.14-16.29-.13-24.44,0-2.28,.04-2.95-.77-3.32-2.93-1.22-7.08-2.73-14.12-4.12-21.17-.35,.02-.7,.04-1.05,.06Zm-2.47-66.08c0-15.2,0-30.4,0-45.6,0-6.23-4.68-11.54-11.48-13.03-6.96-1.52-12.33,.84-15.16,6.88-2.41,5.15-3.3,10.71-3.65,16.31-1.55,25.21-1.47,50.44,.04,75.65,.33,5.44,1.26,10.82,3.43,15.92,2.08,4.88,5.74,7.25,11.02,7.43,7.84,.27,15.74-8.11,15.78-17.07,.07-15.5,.02-30.99,.02-46.49Z"/>
  <path class="cls-1" d="M537.34,76.83c-.13-6.63-.19-13.29-2.12-19.73-2.43-8.11-7.07-11.8-14.97-11.89-9.15-.11-14.98,3.42-17.04,11.71-4.29,17.31-1.88,33.37,10.54,47.08,6.66,7.35,14.01,14.01,21.25,20.77,6.49,6.05,12.89,12.18,19.15,18.48,18.04,18.14,24.38,40.19,22.43,65.13-.55,7.07-1.26,14.11-3.26,20.94-4.8,16.4-15.34,26.9-32.2,30.7-15.13,3.41-30.22,3.4-45.19-.97-17.7-5.18-27.12-17.39-29.98-35.17-1.61-10.02-.91-20.01,.11-30.02,.24-2.35,1.06-3.23,3.57-3.2,9.92,.14,19.85,.16,29.77,0,2.7-.04,3.15,.95,3.06,3.33-.3,8.13-.13,16.25,1.77,24.21,2.83,11.88,11.97,16.96,23.57,13.19,7.13-2.32,9.95-8,11.02-14.73,2.95-18.45-1.56-34.79-14.27-48.71-7.39-8.1-15.91-15.01-23.98-22.4-11.7-10.71-23.47-21.5-29.71-36.46-8.44-20.21-9.1-41.11-2.77-61.94,4.34-14.28,14.65-23.29,28.93-27.51,14.17-4.18,28.63-4.68,43.03-1.53,19.16,4.19,30.67,17.5,33.41,37.67,1.34,9.87,1.11,19.71,.15,29.59-.22,2.23-1.11,2.57-2.99,2.68-10.2,.62-20.39,1.28-30.57,2.08-2.26,.18-2.83-.55-2.75-2.66,.14-3.54,.04-7.08,.04-10.63Z"/>
  <path class="cls-1" d="M758.92,237.35c-2.99,4.2-5.08,7.56-7.58,10.59-10.83,13.11-24.88,16.93-41.05,13.16-11.24-2.62-17.23-10.77-20.32-21.34-1.91-6.55-2.76-13.27-2.76-20.1-.02-43.86,0-87.72-.13-131.57,0-3.27,1.06-3.83,4.02-3.78,10.36,.18,20.74,.22,31.1-.02,3.47-.08,4.4,.83,4.39,4.34-.13,40.61-.08,81.22-.09,121.83,0,5.32,.18,10.64,1.65,15.8,1.95,6.86,6.5,9.5,13.47,7.96,8.23-1.82,12.88-7.58,12.88-15.97,0-43.12,.05-86.24-.08-129.36-.01-3.66,.88-4.71,4.61-4.61,10.51,.27,21.03,.2,31.54,.02,2.81-.05,3.41,.8,3.41,3.47-.08,55.97-.07,111.93-.01,167.9,0,2.3-.3,3.38-3.03,3.32-8.44-.19-16.88-.16-25.32-.01-2.46,.04-3.33-.79-3.66-3.15-.8-5.8-1.87-11.56-3.02-18.47Z"/>
  <path class="cls-1" d="M1109.47,171.39c.15,17.26,.54,34.54-3.54,51.51-1.03,4.3-2.41,8.48-4.19,12.54-5.69,12.94-15.52,20.94-29.25,24.04-10.21,2.31-20.54,2.39-30.88,.77-20.68-3.25-31.42-16.5-36.08-35.81-1.98-8.2-3.17-16.55-3.36-24.95-.48-21.09-1.17-42.2,.63-63.27,.82-9.58,2.62-18.98,6.36-27.9,6.04-14.42,16.66-23.23,32.22-26.01,10.32-1.84,20.62-1.94,30.86,.25,15.7,3.35,25.65,13.19,31,28,4.47,12.36,5.82,25.24,6.19,38.25,.22,7.52,.04,15.05,.04,22.58Zm-68.24-1.69c0,11.52-.2,23.03,.07,34.54,.17,7.2,.41,14.47,3.15,21.33,1.84,4.61,4.79,7.7,10.13,7.86,5.73,.17,9.65-2.09,11.99-7.33,1.81-4.07,2.65-8.43,2.91-12.87,1.54-25.81,.7-51.65,.53-77.48-.05-7.32-.57-14.77-4.04-21.56-2.33-4.55-6.13-6.73-11.14-6.63-5.15,.1-8.5,2.9-10.38,7.6-1.55,3.87-2.24,7.91-2.62,12.04-1.27,14.15-.46,28.33-.6,42.49Z"/>
  <path class="cls-1" d="M603.59,173.44c0-18.31-.09-36.63,.09-54.94,.03-3.36-.86-4.18-4.17-4.12-9.96,.17-9.96,.02-9.96-9.99,0-5.76,.08-11.52-.04-17.28-.04-2.11,.62-2.87,2.76-2.77,3.4,.15,6.82-.14,10.21,.1,2.67,.18,3.58-.71,3.79-3.38,1.14-14.57,2.56-29.11,3.65-43.69,.26-3.54,.98-5.24,5.1-4.99,6.64,.4,13.33,.25,19.99,.04,2.76-.09,3.44,.72,3.42,3.43-.14,14.92,.03,29.83-.14,44.75-.04,3.11,.75,3.99,3.88,3.86,6.51-.26,13.03,0,19.55-.12,2.28-.04,3.46,.26,3.39,3.02-.18,8.12-.17,16.25,0,24.37,.05,2.55-1,2.83-3.11,2.79-6.52-.11-13.03,0-19.55-.06-1.81-.01-3.07,.05-3.04,2.5,.4,34.25-.78,68.52,.67,102.76,.39,9.23,2.77,10.82,12.09,10.04,.89-.07,1.78-.11,2.65-.25,2.59-.42,6.15-2.1,7.53-1.01,1.8,1.41,1.92,4.99,2.68,7.67,1.36,4.82,2.52,9.7,4.03,14.47,.64,2.03,.17,2.93-1.7,3.64-14.85,5.65-30.16,7.5-45.74,4.4-10.09-2.01-15.56-10.16-17.03-23.24-1.85-16.5-.63-33.05-.96-49.57-.08-4.13-.01-8.27-.01-12.41Z"/>
  <path class="cls-1" d="M983.18,172c0,27.61-.05,55.21,.07,82.82,.01,3.18-.56,4.28-4.03,4.19-9.91-.27-19.84-.16-29.76-.05-2.48,.03-3.59-.27-3.59-3.26,.1-55.95,.1-111.9,0-167.85,0-3.1,1.1-3.58,3.81-3.54,9.92,.14,19.84,.2,29.76-.03,3.27-.08,3.81,1.06,3.8,4.01-.11,27.9-.06,55.8-.06,83.71Z"/>
  <path class="cls-1" d="M985.49,38.84c-.25,4.37-.2,8.52-1.35,12.54-.65,2.29-1.4,4.58-3.01,6.34-6.86,7.49-15.72,6.49-24.39,5.13-6.93-1.09-10.64-5.84-11.98-12.56-1.52-7.63-1.62-15.27,.33-22.8,1.66-6.38,5.8-10.37,12.45-11.73,4.13-.84,8.27-.9,12.36-.37,9.29,1.2,13.9,6.13,15.03,15.75,.31,2.63,.38,5.3,.54,7.7Z"/>
</svg>